<svg xmlns="http://www.w3.org/2000/svg" width="140" height="71" viewBox="0 0 140 71" fill="none"><g clip-path="url(#clip0_555_23)"><g clip-path="url(#clip1_555_23)"><g clip-path="url(#clip2_555_23)"><path d="M140 38.4663H0V64.4663H140V38.4663Z" fill="#0B2FE1"></path><path d="M112.677 37.4729V36.1014C112.244 36.336 111.751 36.5526 111.197 36.7511C110.65 36.9496 110.07 37.121 109.456 37.2654C108.849 37.4097 108.223 37.521 107.579 37.5992C106.936 37.6774 106.304 37.7165 105.684 37.7165C104.878 37.7165 104.154 37.6443 103.51 37.5C102.872 37.3556 102.331 37.1421 101.886 36.8593C101.441 36.5706 101.098 36.2157 100.857 35.7946C100.617 35.3676 100.496 34.8743 100.496 34.3149C100.496 33.7615 100.635 33.2742 100.911 32.8532C101.194 32.4261 101.594 32.0562 102.111 31.7434C102.629 31.4246 103.251 31.1569 103.979 30.9403C104.713 30.7178 105.531 30.5313 106.433 30.3809C107.336 30.2245 108.31 30.0982 109.357 30.0019C110.409 29.8997 111.516 29.8155 112.677 29.7493V28.8019C112.677 28.4169 112.605 28.0771 112.461 27.7823C112.316 27.4876 112.115 27.2319 111.856 27.0154C111.598 26.7928 111.294 26.6093 110.945 26.465C110.596 26.3146 110.217 26.1943 109.808 26.1041C109.405 26.0138 108.978 25.9507 108.527 25.9146C108.082 25.8725 107.633 25.8514 107.182 25.8514C106.575 25.8514 106.021 25.8815 105.522 25.9416C105.023 26.0018 104.557 26.086 104.124 26.1943C103.69 26.2965 103.275 26.4168 102.878 26.5552C102.481 26.6935 102.081 26.8409 101.678 26.9973V25.68C102.514 25.4574 103.405 25.2649 104.349 25.1025C105.3 24.9341 106.307 24.8499 107.372 24.8499C108.274 24.8499 109.116 24.9281 109.898 25.0845C110.68 25.2348 111.36 25.4785 111.937 25.8153C112.515 26.1522 112.969 26.5883 113.3 27.1236C113.631 27.653 113.796 28.2996 113.796 29.0636V37.4729H112.677ZM112.677 30.7508C110.71 30.8591 109.029 31.0125 107.633 31.211C106.244 31.4095 105.107 31.6531 104.223 31.9419C103.339 32.2306 102.689 32.5674 102.274 32.9524C101.865 33.3374 101.66 33.7735 101.66 34.2607C101.66 34.6578 101.76 35.0096 101.958 35.3164C102.163 35.6232 102.454 35.8819 102.833 36.0924C103.212 36.2969 103.672 36.4533 104.214 36.5616C104.755 36.6638 105.363 36.715 106.036 36.715C106.433 36.715 106.842 36.6939 107.264 36.6518C107.691 36.6037 108.115 36.5405 108.536 36.4623C108.957 36.3781 109.372 36.2819 109.781 36.1736C110.19 36.0593 110.575 35.936 110.936 35.8037C111.297 35.6713 111.625 35.53 111.919 35.3796C112.22 35.2292 112.473 35.0758 112.677 34.9194V30.7508ZM110.692 21.8633C110.692 22.0197 110.668 22.2122 110.62 22.4408C110.578 22.6693 110.494 22.8889 110.367 23.0994C110.241 23.31 110.067 23.4904 109.844 23.6408C109.628 23.7852 109.345 23.8574 108.996 23.8574C108.713 23.8574 108.433 23.8002 108.157 23.6859C107.886 23.5716 107.621 23.4483 107.363 23.316C107.11 23.1776 106.867 23.0513 106.632 22.937C106.403 22.8227 106.193 22.7656 106 22.7656C105.82 22.7656 105.675 22.8107 105.567 22.9009C105.465 22.9912 105.387 23.0994 105.333 23.2258C105.278 23.3461 105.242 23.4664 105.224 23.5867C105.206 23.707 105.194 23.7972 105.188 23.8574H104.331C104.331 23.707 104.355 23.5205 104.403 23.2979C104.451 23.0694 104.539 22.8498 104.665 22.6393C104.791 22.4227 104.966 22.2393 105.188 22.0889C105.411 21.9385 105.7 21.8633 106.054 21.8633C106.289 21.8633 106.536 21.9204 106.794 22.0347C107.053 22.149 107.312 22.2753 107.57 22.4137C107.835 22.546 108.091 22.6693 108.337 22.7836C108.584 22.8979 108.815 22.9551 109.032 22.9551C109.212 22.9551 109.354 22.91 109.456 22.8197C109.564 22.7295 109.646 22.6242 109.7 22.5039C109.754 22.3836 109.79 22.2633 109.808 22.143C109.826 22.0227 109.838 21.9295 109.844 21.8633H110.692Z" fill="#0C30E1"></path><path d="M119 39.4805C119 39.4805 119.235 23.6092 119.704 22.813C120.194 21.9965 120.848 21.3534 121.664 20.8839C122.481 20.3939 123.379 20.1489 124.359 20.1489C125.339 20.1489 126.237 20.3939 127.053 20.8839C127.87 21.3534 128.513 21.9965 128.982 22.813C129.472 23.6092 129.717 39.4805 129.717 39.4805H119ZM124.29 39.4805C124.617 39.4851 124.79 39.4805 125.124 39.4805V24.9259C125.124 24.7014 125.053 24.5177 124.91 24.3748C124.767 24.2114 124.584 24.1298 124.359 24.1298C124.135 24.1298 123.941 24.2114 123.777 24.3748C123.634 24.5177 123.562 24.7014 123.562 24.9259V39.4805C123.791 39.4805 124.004 39.4764 124.29 39.4805Z" fill="#0B2FE1"></path><path d="M93.227 26.9068C92.9925 26.7926 92.7215 26.6723 92.415 26.5459C92.108 26.4136 91.756 26.2963 91.359 26.194C90.968 26.0918 90.526 26.0076 90.033 25.9414C89.5395 25.8692 88.992 25.8331 88.3905 25.8331C87.663 25.8331 87.013 25.8752 86.4415 25.9594C85.876 26.0437 85.395 26.176 84.998 26.3564C84.607 26.5309 84.306 26.7535 84.0955 27.0241C83.891 27.2948 83.789 27.6166 83.789 27.9896C83.789 28.3024 83.885 28.5761 84.0775 28.8107C84.276 29.0453 84.541 29.2528 84.8715 29.4333C85.2085 29.6137 85.5995 29.7791 86.0445 29.9295C86.496 30.0739 86.971 30.2122 87.4705 30.3446C87.9755 30.4709 88.493 30.6002 89.022 30.7325C89.5575 30.8649 90.075 31.0093 90.574 31.1656C91.0795 31.316 91.5545 31.4875 92 31.68C92.451 31.8664 92.842 32.086 93.1725 32.3386C93.5095 32.5913 93.7745 32.88 93.9665 33.2048C94.165 33.5296 94.2645 33.9056 94.2645 34.3327C94.2645 34.7959 94.1775 35.2019 94.003 35.5508C93.8285 35.8936 93.591 36.1914 93.29 36.444C92.9955 36.6907 92.6465 36.8982 92.2435 37.0666C91.8465 37.229 91.4195 37.3584 90.962 37.4546C90.511 37.5508 90.042 37.617 89.5545 37.6531C89.0735 37.6952 88.598 37.7163 88.129 37.7163C87.052 37.7163 86.0745 37.6381 85.1965 37.4817C84.3245 37.3253 83.491 37.1117 82.697 36.841V35.4605C83.515 35.9478 84.3785 36.2816 85.2865 36.4621C86.201 36.6425 87.1605 36.7328 88.165 36.7328C88.875 36.7328 89.5305 36.6907 90.132 36.6064C90.7335 36.5222 91.254 36.3899 91.693 36.2094C92.132 36.023 92.472 35.7824 92.7125 35.4876C92.959 35.1929 93.0825 34.8319 93.0825 34.4049C93.0825 34.062 92.983 33.7612 92.7845 33.5026C92.5925 33.2439 92.3275 33.0183 91.9905 32.8259C91.66 32.6274 91.269 32.4529 90.818 32.3025C90.3725 32.1522 89.9005 32.0138 89.401 31.8875C88.902 31.7551 88.3845 31.6288 87.849 31.5085C87.32 31.3822 86.8055 31.2469 86.3065 31.1025C85.807 30.9581 85.332 30.7957 84.8805 30.6153C84.4355 30.4348 84.0445 30.2243 83.7075 29.9837C83.377 29.737 83.112 29.4543 82.9135 29.1355C82.721 28.8167 82.625 28.4468 82.625 28.0257C82.625 27.6106 82.703 27.2437 82.8595 26.9249C83.016 26.6001 83.2295 26.3204 83.5 26.0858C83.777 25.8512 84.0985 25.6557 84.4655 25.4993C84.8325 25.3369 85.2235 25.2105 85.6385 25.1203C86.0595 25.0241 86.496 24.9549 86.947 24.9128C87.398 24.8707 87.843 24.8496 88.2825 24.8496C88.7635 24.8496 89.2175 24.8707 89.645 24.9128C90.078 24.9549 90.493 25.012 90.89 25.0842C91.293 25.1504 91.684 25.2286 92.063 25.3188C92.448 25.409 92.836 25.5053 93.227 25.6076V26.9068Z" fill="#0C30E1"></path><path d="M77.4233 26.0315C77.2488 25.9774 77.0053 25.9202 76.6923 25.8601C76.3858 25.7939 75.9888 25.7608 75.5013 25.7608C74.8278 25.7608 74.1933 25.845 73.5978 26.0135C73.0083 26.1759 72.4578 26.3985 71.9463 26.6812C71.4413 26.9639 70.9718 27.2947 70.5388 27.6737C70.1058 28.0466 69.7148 28.4436 69.3658 28.8647V37.4725H68.2383V25.0751H69.3658V27.6015C69.7688 27.1865 70.2053 26.8045 70.6743 26.4556C71.1493 26.1067 71.6488 25.809 72.1723 25.5623C72.6953 25.3097 73.2428 25.1142 73.8143 24.9758C74.3918 24.8315 74.9873 24.7593 75.6008 24.7593C75.8113 24.7593 76.0008 24.7653 76.1693 24.7773C76.3378 24.7834 76.4908 24.7954 76.6293 24.8134C76.7738 24.8255 76.9093 24.8405 77.0353 24.8585C77.1618 24.8766 77.2908 24.8976 77.4233 24.9217V26.0315Z" fill="#0C30E1"></path><path d="M60.2225 36.823C59.717 36.9794 59.248 37.1148 58.8145 37.2291C58.3815 37.3373 57.9545 37.4246 57.5335 37.4907C57.1125 37.5629 56.6825 37.6141 56.243 37.6441C55.81 37.6802 55.332 37.6983 54.8085 37.6983C53.5935 37.6983 52.4955 37.5509 51.515 37.2561C50.5345 36.9614 49.6986 36.5403 49.0068 35.9929C48.3211 35.4395 47.7918 34.7718 47.4188 33.9899C47.0459 33.2079 46.8594 32.3296 46.8594 31.3552C46.8594 30.4108 47.0368 29.5446 47.3917 28.7566C47.7527 27.9686 48.2549 27.2919 48.8986 26.7264C49.5422 26.161 50.312 25.7219 51.2085 25.4091C52.1045 25.0963 53.094 24.9399 54.177 24.9399C55.302 24.9399 56.3035 25.0903 57.1815 25.391C58.06 25.6918 58.7995 26.1219 59.401 26.6813C60.003 27.2407 60.46 27.9205 60.7725 28.7205C61.0855 29.5145 61.242 30.4108 61.242 31.4093V31.689H48.0233C48.0895 32.459 48.282 33.1537 48.6008 33.7733C48.9196 34.3929 49.3708 34.9192 49.9542 35.3523C50.544 35.7854 51.2655 36.1193 52.12 36.3539C52.98 36.5824 53.9815 36.6967 55.1245 36.6967C55.6115 36.6967 56.105 36.6636 56.604 36.5975C57.1035 36.5313 57.5815 36.4441 58.039 36.3358C58.496 36.2215 58.914 36.0952 59.293 35.9568C59.672 35.8125 59.9815 35.6651 60.2225 35.5147V36.823ZM60.132 30.7055C60.09 30.0739 59.9485 29.4724 59.708 28.901C59.4675 28.3235 59.1065 27.8152 58.6255 27.3761C58.15 26.937 57.5425 26.5881 56.8025 26.3294C56.069 26.0708 55.1875 25.9414 54.159 25.9414C53.1905 25.9414 52.3425 26.0708 51.6145 26.3294C50.8865 26.5881 50.27 26.937 49.7648 27.3761C49.2595 27.8092 48.8625 28.3145 48.5737 28.8919C48.285 29.4634 48.1015 30.0679 48.0233 30.7055H60.132Z" fill="#0C30E1"></path><path d="M22.1279 25.0751V26.9789C22.3925 26.7503 22.6873 26.5067 23.0121 26.2481C23.3369 25.9894 23.6948 25.7518 24.0858 25.5353C24.4768 25.3187 24.9009 25.1383 25.3581 24.9939C25.8152 24.8495 26.3055 24.7773 26.8288 24.7773C27.6649 24.7773 28.4048 24.9668 29.0484 25.3458C29.692 25.7187 30.2124 26.2992 30.6094 27.0872C30.9944 26.7323 31.3914 26.4135 31.8004 26.1308C32.2094 25.842 32.6275 25.5984 33.0546 25.3999C33.4877 25.2014 33.9328 25.048 34.3899 24.9398C34.8471 24.8315 35.3193 24.7773 35.8065 24.7773C36.4261 24.7773 36.9886 24.8826 37.4938 25.0931C38.0051 25.3037 38.4382 25.5924 38.7931 25.9593C39.148 26.3263 39.4217 26.7594 39.6142 27.2586C39.8127 27.7519 39.9119 28.2812 39.9119 28.8467V37.4725H38.7841V29.1354C38.7841 28.6181 38.721 28.1579 38.5946 27.7549C38.4743 27.3459 38.2818 27 38.0172 26.7173C37.7585 26.4345 37.4247 26.221 37.0156 26.0766C36.6126 25.9263 36.1284 25.8511 35.5629 25.8511C35.1118 25.8511 34.6637 25.9172 34.2185 26.0496C33.7794 26.1759 33.3583 26.3473 32.9553 26.5639C32.5523 26.7744 32.1763 27.015 31.8274 27.2857C31.4785 27.5564 31.1718 27.8361 30.9071 28.1248C30.9372 28.2933 30.9522 28.4376 30.9522 28.5579C30.9582 28.6782 30.9613 28.8226 30.9613 28.991V37.4725H29.8334V29.1354C29.8334 28.5218 29.7522 28.0075 29.5898 27.5925C29.4274 27.1714 29.2018 26.8315 28.913 26.5729C28.6243 26.3142 28.2815 26.1308 27.8845 26.0225C27.4935 25.9082 27.0664 25.8511 26.6032 25.8511C26.1641 25.8511 25.728 25.9263 25.2949 26.0766C24.8678 26.227 24.4588 26.4225 24.0678 26.6631C23.6768 26.9037 23.3159 27.1744 22.985 27.4752C22.6542 27.7699 22.3685 28.0647 22.1279 28.3594V37.4725H21V25.0751H22.1279Z" fill="#0C30E1"></path><path d="M12 37.4726V25.0752H13.1278V37.4726H12Z" fill="#0C30E1"></path><path d="M65.6211 62.3982V40.9629H70.1836V58.4477H74.1951V62.3982H65.6211Z" fill="white"></path><path d="M28.8057 62.7042C27.8462 62.7042 27.0705 62.4697 26.4785 62.0002C25.9068 61.5102 25.4883 60.8672 25.223 60.0707C24.978 59.2542 24.8555 58.3457 24.8555 57.3457V40.9629H29.4182V57.6517C29.4182 57.8557 29.4896 58.0397 29.6325 58.2032C29.7958 58.3662 29.9898 58.4477 30.2143 58.4477C30.4389 58.4477 30.6226 58.3662 30.7655 58.2032C30.9084 58.0397 30.9799 57.8557 30.9799 57.6517V40.9629H35.5731V62.3982H31.9291V61.3262H31.6229C31.48 61.6732 31.133 61.9897 30.5818 62.2757C30.051 62.5617 29.459 62.7042 28.8057 62.7042Z" fill="white"></path><path d="M71.4215 4.96123C71.4215 4.96123 70.2426 5.80053 70.3331 6.27038C70.4251 6.74003 69.43 7.90968 69.43 7.90968C69.43 7.90968 68.9785 8.72933 69.3775 8.89663L69.7766 9.06398L70.3385 9.44323L70.3586 10.1723L68.9771 9.34153L68.5226 10.3C68.5226 10.3 68.3255 10.9325 68.2105 10.8182C68.097 10.7023 67.3795 11.254 67.3795 11.254C67.3795 11.254 67.3776 11.7125 67.3596 11.8535C67.3411 11.9945 67.0581 12.1873 67.0581 12.1873C67.0581 12.1873 66.7855 12.194 66.7225 12.3445C66.6595 12.495 66.7381 12.8913 66.7381 12.8913C66.7381 12.8913 66.692 13.1285 66.427 13.1803C66.1625 13.232 65.6596 13.4671 65.5011 13.3606C65.3431 13.2541 65.0601 13.4469 65.0601 13.4469L64.872 13.8951L65.1975 13.9238L65.54 14.0408L65.468 14.3755C65.468 14.3755 65.1416 14.576 65.0086 14.6013C64.8766 14.6263 64.9191 14.8478 64.9191 14.8478L64.4761 15.391L64.263 15.7075L64.6861 15.7623L64.8925 16.5922C64.8925 16.5922 65.138 16.9107 65.374 17.1859C65.6105 17.4611 65.758 17.7521 65.802 17.9718C65.844 18.1918 66.0715 18.6513 66.0715 18.6513L65.23 17.8539C65.23 17.8539 65.0281 17.7552 64.9491 17.5882C64.8711 17.4209 64.8895 17.2799 64.6955 17.2247C64.5015 17.171 64.247 17.0367 64.247 17.0367C64.247 17.0367 64.0725 16.6128 64.0475 16.481C64.0225 16.3493 63.9775 16.3573 63.863 16.4706C63.7485 16.5838 63.4975 17.1825 63.321 17.2171C63.1445 17.2516 62.9595 17.4703 62.9595 17.4703L62.6685 17.6181L62.32 18.4183L61.7966 19.0238L61.4585 19.6381L61.264 19.8136L61.6861 20.0976L61.6216 20.4758L60.583 20.3109C60.583 20.3109 61.1246 21.2128 60.9911 21.238C60.8596 21.2631 60.4011 21.2611 60.4011 21.2611L60.19 21.1191L59.931 21.6728L59.7085 21.9446L59.2471 22.6288L58.605 23.8063L57.9836 24.8426L57.5936 25.1921L57.6625 25.5451L57.9255 25.9518L57.9945 26.3048C57.9945 26.3048 57.6051 26.6543 57.3231 26.6178C57.0411 26.5813 56.8851 26.2454 56.8851 26.2454C56.8851 26.2454 56.7451 25.9979 56.5321 26.3144C56.3191 26.6309 56.4035 27.0708 56.4035 27.0708C56.4035 27.0708 56.6321 27.3011 56.1026 27.4046C55.5726 27.5066 56.4231 26.7021 55.5726 27.5066C54.7226 28.3126 54.7191 28.7714 54.7191 28.7714L54.4351 29.1934L53.9571 29.5601L53.0881 30.7364C52.9806 31.1239 53.3335 31.0549 53.119 31.3716C52.9045 31.6883 52.1825 31.7364 52.1825 31.7364L51.7066 31.6462L51.0985 33.2294L51.2891 33.7418L52.1161 33.7647L52.5176 34.4192L52.0936 34.5937L51.3876 34.7302C51.3876 34.7302 50.9785 35.45 50.821 35.1142C50.664 34.7785 49.9979 34.1758 49.9979 34.1758L50.3091 35.306C50.3091 35.306 49.649 36.6245 50.0365 36.732C50.424 36.8394 50.5145 36.3652 50.4745 37.1044C50.4345 37.8451 50.43 38.7606 50.321 39.1483C50.2135 39.5358 50.3366 39.695 50.2136 39.5358C50.0911 39.3766 49.5862 38.1926 49.4477 37.9449C49.3077 37.6974 49.3442 37.4155 49.2057 37.1677C49.0657 36.9203 49.0154 36.6553 49.0154 36.6553L48.4203 35.9471L48.1364 36.3691C48.1364 36.3691 47.6357 37.5649 47.371 37.6166C47.1062 37.6684 46.8393 38.1771 46.8393 38.1771L46.2677 39.4784L45.5941 40.2499L46.1545 40.7815C46.1545 40.7815 46.4139 41.647 46.1319 41.6105C45.8499 41.574 45.0396 41.6393 45.0396 41.6393L44.4389 41.8469L44.2777 42.4281L43.6233 42.8294L43.2854 43.4436C43.2854 43.4436 42.9842 43.7774 42.7882 44.1806C42.5925 44.5854 42.8917 44.7101 42.4675 44.8831C42.0433 45.0561 41.3871 45.9174 41.3871 45.9174L41.6829 46.5009L41.1996 47.7848C40.9886 47.6428 40.3418 46.6699 40.3418 46.6699C40.3418 46.6699 40.2688 47.2339 40.0383 47.4607C39.8079 47.6874 39.6259 48.6391 39.6259 48.6391C39.6259 48.6391 39.3248 48.9729 39.3936 49.3244C39.4626 49.6774 38.8584 50.3437 38.6282 50.5717C38.3979 50.8002 37.8973 51.9957 37.8298 51.6427C37.7608 51.2897 37.5244 49.5967 37.5244 49.5967L38.5126 49.4967C38.5126 49.4967 37.6183 48.6638 37.3706 48.8023C37.1231 48.9423 36.5012 49.9786 36.5012 49.9786L36.7777 50.9322L36.4226 51.4582L36.1729 52.0552L35.8695 52.8462L35.4798 53.1957L35.1191 54.6387L34.7985 55.3412L34.3033 55.6197C34.3033 55.6197 34.5089 56.6787 34.3129 57.0822C34.1172 57.4867 33.4936 58.5217 33.4936 58.5217L32.7144 59.2222L32.3193 60.4892L32.2963 61.3167L31.7151 61.1552L31.7439 62.2477L31.3178 62.8792L31.0143 63.6697L30.6937 64.3722L30.022 64.6852C30.022 64.6852 29.9281 65.6182 29.8033 65.9177C29.6786 66.2167 29.4309 66.3552 29.3062 66.6547L29.1814 66.9537C29.1814 66.9537 29.122 68.0632 28.7863 68.2202C28.4506 68.3777 30.3254 67.1897 30.3254 67.1897C30.3254 67.1897 30.8206 66.9112 31.1218 66.5772C31.423 66.2437 31.4942 66.1397 31.8837 65.7887C32.2734 65.4392 32.7531 64.6122 33.0009 64.4737C33.2483 64.3337 33.4248 64.2992 33.638 63.9842C33.8512 63.6692 33.8201 63.0342 34.2614 62.9477C34.7026 62.8617 35.1944 63.0417 35.0214 62.6177C34.8468 62.1937 34.693 61.3992 34.449 61.0802C34.2035 60.7617 34.2587 60.5682 34.3489 60.0922C34.4392 59.6167 34.6041 58.5782 34.6041 58.5782L35.0687 60.5012L35.328 61.3667L35.5025 61.7907C35.5025 61.7907 36.2087 61.6542 36.0514 61.3182C35.8942 60.9827 35.9652 60.8772 36.0744 60.4907C36.1836 60.1047 36.8018 59.5257 36.8018 59.5257C36.8018 59.5257 37.2085 59.2627 37.2452 58.9822C37.2817 58.7002 37.2679 58.1532 37.2679 58.1532L37.3465 56.6737L37.8533 57.3992C37.8533 57.3992 38.3313 57.0322 38.4388 56.6447C38.5462 56.2572 38.8821 56.1017 39.0621 55.6082C39.2406 55.1152 39.6303 54.7657 39.7565 54.4662C39.8813 54.1672 40.8177 53.8022 41.0673 53.2052C41.317 52.6082 41.7947 52.2402 41.8155 51.8697C41.8362 51.4992 42.2072 51.0617 42.3334 50.7622C42.4581 50.4627 42.6863 50.6932 42.6863 50.6932L43.3388 50.7502L43.5037 49.7119L43.9299 49.0804C43.9299 49.0804 43.5402 49.4299 44.569 48.1324C45.5979 46.8349 46.0081 46.1134 46.0081 46.1134L46.7873 45.4129L47.4052 45.2936L47.7811 44.3972C47.7811 44.3972 47.6948 43.9559 47.8211 43.6565C47.9458 43.3572 48.2128 42.8485 48.339 42.549C48.4637 42.2497 48.6941 42.023 48.6941 42.023L49.1279 43.3124L49.1337 42.3967L49.6115 42.03L50.3195 41.4349L51.6516 39.8034C51.6516 39.8034 52.2366 39.0492 52.3456 38.6615C52.4546 38.2737 52.7375 37.8535 52.8465 37.4657C52.9555 37.078 52.952 37.5367 52.954 37.0782C52.9555 36.6198 53.2416 36.199 53.2416 36.199L54.4105 35.149C54.4105 35.149 54.9401 35.0455 54.7481 34.5348C54.5581 34.0223 54.5405 33.9341 54.648 33.5466C54.7555 33.1591 55.1455 32.8096 55.1455 32.8096C55.1455 32.8096 55.592 31.8076 55.805 31.4911C56.018 31.1746 56.0931 30.6119 56.1431 30.8768C56.1951 31.1416 56.1356 32.251 56.1356 32.251L56.2925 32.5868C56.2925 32.5868 57.072 31.8862 57.2505 31.3932C57.429 30.9002 57.8361 30.639 57.8741 30.3568C57.9106 30.0748 58.743 29.1805 58.958 28.8653C59.1725 28.5501 59.1 28.6543 59.2785 28.1628C59.457 27.6698 59.5971 27.9173 59.7046 27.5313C59.8126 27.1453 60.0806 26.6348 60.0806 26.6348L60.1765 25.2434C60.1765 25.2434 60.3701 25.2971 60.5261 25.6331C60.6836 25.9688 61.1576 26.0592 61.1576 26.0592C61.1576 26.0592 61.445 25.18 61.641 24.7753C61.8365 24.3705 63.5601 21.931 63.5601 21.931L64.1486 20.718C64.1486 20.718 64.678 20.6145 64.803 20.3168C64.928 20.0175 65.565 19.528 65.565 19.528L66.3215 19.6564L66.8726 18.7257L67.0165 18.0562C67.0165 18.0562 66.842 17.6322 66.968 17.3327C67.093 17.0335 67.716 15.997 67.716 15.997C67.716 15.997 67.6105 15.926 67.7355 15.6268C67.86 15.3275 68.5145 14.9262 68.4455 14.5732C68.3765 14.2203 68.574 13.8168 68.6105 13.5348C68.647 13.2528 68.6675 12.8823 68.6675 12.8823C68.6675 12.8823 69.2511 12.5866 69.3586 12.1991C69.4661 11.8116 69.6291 11.2316 69.6291 11.2316L70.4236 11.0778L70.83 10.8151C70.83 10.8151 71.1315 10.4813 71.08 10.2181C71.0285 9.95483 71.245 9.17963 71.245 9.17963C71.245 9.17963 71.122 9.02038 71.1255 8.56168C71.1275 8.10318 71.3075 7.61148 71.3075 7.61148C71.3075 7.61148 71.7165 6.89173 71.7545 6.60953C71.791 6.32753 72.4111 5.74973 72.2726 5.50203C72.1326 5.25458 72.2745 5.04355 72.2955 4.6746C72.3165 4.30565 72.4605 3.63615 72.4605 3.63615C72.4605 3.63615 72.921 3.18114 72.923 2.72265L72.925 2.26416L71.4361 4.9638L71.4215 4.96123Z" fill="#393939"></path><path d="M71.4215 4.96123C71.4215 4.96123 70.2426 5.80053 70.3331 6.27038C70.4251 6.74003 69.43 7.90968 69.43 7.90968C69.43 7.90968 68.9785 8.72933 69.3775 8.89663L69.7766 9.06398L70.3385 9.44323L70.3586 10.1723L68.9771 9.34153L68.5226 10.3C68.5226 10.3 68.3255 10.9325 68.2105 10.8182C68.097 10.7023 67.3795 11.254 67.3795 11.254C67.3795 11.254 67.3776 11.7125 67.3596 11.8535C67.3411 11.9945 67.0581 12.1873 67.0581 12.1873C67.0581 12.1873 66.7855 12.194 66.7225 12.3445C66.6595 12.495 66.7381 12.8913 66.7381 12.8913C66.7381 12.8913 66.692 13.1285 66.427 13.1803C66.1625 13.232 65.6596 13.4671 65.5011 13.3606C65.3431 13.2541 65.0601 13.4469 65.0601 13.4469L64.872 13.8951L65.1975 13.9238L65.54 14.0408L65.468 14.3755C65.468 14.3755 65.1416 14.576 65.0086 14.6013C64.8766 14.6263 64.9191 14.8478 64.9191 14.8478L64.4761 15.391L64.263 15.7075L64.6861 15.7623L64.8925 16.5922C64.8925 16.5922 65.138 16.9107 65.374 17.1859C65.6105 17.4611 65.758 17.7521 65.802 17.9718C65.844 18.1918 66.0715 18.6513 66.0715 18.6513L65.23 17.8539C65.23 17.8539 65.0281 17.7552 64.9491 17.5882C64.8711 17.4209 64.8895 17.2799 64.6955 17.2247C64.5015 17.171 64.247 17.0367 64.247 17.0367C64.247 17.0367 64.0725 16.6128 64.0475 16.481C64.0225 16.3493 63.9775 16.3573 63.863 16.4706C63.7485 16.5838 63.4975 17.1825 63.321 17.2171C63.1445 17.2516 62.9595 17.4703 62.9595 17.4703L62.6685 17.6181L62.32 18.4183L61.7966 19.0238L61.4585 19.6381L61.264 19.8136L61.6861 20.0976L61.6216 20.4758L60.583 20.3109C60.583 20.3109 61.1246 21.2128 60.9911 21.238C60.8596 21.2631 60.4011 21.2611 60.4011 21.2611L60.19 21.1191L59.931 21.6728L59.7085 21.9446L59.2471 22.6288L58.605 23.8063L57.9836 24.8426L57.5936 25.1921L57.6625 25.5451L57.9255 25.9518L57.9945 26.3048C57.9945 26.3048 57.6051 26.6543 57.3231 26.6178C57.0411 26.5813 56.8851 26.2454 56.8851 26.2454C56.8851 26.2454 56.7451 25.9979 56.5321 26.3144C56.3191 26.6309 56.4035 27.0708 56.4035 27.0708C56.4035 27.0708 56.6321 27.3011 56.1026 27.4046C55.5726 27.5066 56.4231 26.7021 55.5726 27.5066C54.7226 28.3126 54.7191 28.7714 54.7191 28.7714L54.4351 29.1934L53.9571 29.5601L53.0881 30.7364C52.9806 31.1239 53.3335 31.0549 53.119 31.3716C52.9045 31.6883 52.1825 31.7364 52.1825 31.7364L51.7066 31.6462L51.0985 33.2294L51.2891 33.7418L52.1161 33.7647L52.5176 34.4192L52.0936 34.5937L51.3876 34.7302C51.3876 34.7302 50.9785 35.45 50.821 35.1142C50.664 34.7785 49.9979 34.1758 49.9979 34.1758L50.3091 35.306C50.3091 35.306 49.649 36.6245 50.0365 36.732C50.424 36.8394 50.5145 36.3652 50.4745 37.1044C50.4345 37.8451 50.43 38.7606 50.321 39.1483C50.2135 39.5358 50.3366 39.695 50.2136 39.5358C50.0911 39.3766 49.5862 38.1926 49.4477 37.9449C49.3077 37.6974 49.3442 37.4155 49.2057 37.1677C49.0657 36.9203 49.0154 36.6553 49.0154 36.6553L48.4203 35.9471L48.1364 36.3691C48.1364 36.3691 47.6357 37.5649 47.371 37.6166C47.1062 37.6684 46.8393 38.1771 46.8393 38.1771L46.2677 39.4784L45.5941 40.2499L46.1545 40.7815C46.1545 40.7815 46.4139 41.647 46.1319 41.6105C45.8499 41.574 45.0396 41.6393 45.0396 41.6393L44.4389 41.8469L44.2777 42.4281L43.6233 42.8294L43.2854 43.4436C43.2854 43.4436 42.9842 43.7774 42.7882 44.1806C42.5925 44.5854 42.8917 44.7101 42.4675 44.8831C42.0433 45.0561 41.3871 45.9174 41.3871 45.9174L41.6829 46.5009L41.1996 47.7848C40.9886 47.6428 40.3418 46.6699 40.3418 46.6699C40.3418 46.6699 40.2688 47.2339 40.0383 47.4607C39.8079 47.6874 39.6259 48.6391 39.6259 48.6391C39.6259 48.6391 39.3248 48.9729 39.3936 49.3244C39.4626 49.6774 38.8584 50.3437 38.6282 50.5717C38.3979 50.8002 37.8973 51.9957 37.8298 51.6427C37.7608 51.2897 37.5244 49.5967 37.5244 49.5967L38.5126 49.4967C38.5126 49.4967 37.6183 48.6638 37.3706 48.8023C37.1231 48.9423 36.5012 49.9786 36.5012 49.9786L36.7777 50.9322L36.4226 51.4582L36.1729 52.0552L35.8695 52.8462L35.4798 53.1957L35.1191 54.6387L34.7985 55.3412L34.3033 55.6197C34.3033 55.6197 34.5089 56.6787 34.3129 57.0822C34.1172 57.4867 33.4936 58.5217 33.4936 58.5217L32.7144 59.2222L32.3193 60.4892L32.2963 61.3167L31.7151 61.1552L31.7439 62.2477L31.3178 62.8792L31.0143 63.6697L30.6937 64.3722L30.022 64.6852C30.022 64.6852 29.9281 65.6182 29.8033 65.9177C29.6786 66.2167 29.4309 66.3552 29.3062 66.6547L29.1814 66.9537C29.1814 66.9537 29.122 68.0632 28.7863 68.2202C28.4506 68.3777 30.3254 67.1897 30.3254 67.1897C30.3254 67.1897 30.8206 66.9112 31.1218 66.5772C31.423 66.2437 31.4942 66.1397 31.8837 65.7887C32.2734 65.4392 32.7531 64.6122 33.0009 64.4737C33.2483 64.3337 33.4248 64.2992 33.638 63.9842C33.8512 63.6692 33.8201 63.0342 34.2614 62.9477C34.7026 62.8617 35.1944 63.0417 35.0214 62.6177C34.8468 62.1937 34.693 61.3992 34.449 61.0802C34.2035 60.7617 34.2587 60.5682 34.3489 60.0922C34.4392 59.6167 34.6041 58.5782 34.6041 58.5782L35.0687 60.5012L35.328 61.3667L35.5025 61.7907C35.5025 61.7907 36.2087 61.6542 36.0514 61.3182C35.8942 60.9827 35.9652 60.8772 36.0744 60.4907C36.1836 60.1047 36.8018 59.5257 36.8018 59.5257C36.8018 59.5257 37.2085 59.2627 37.2452 58.9822C37.2817 58.7002 37.2679 58.1532 37.2679 58.1532L37.3465 56.6737L37.8533 57.3992C37.8533 57.3992 38.3313 57.0322 38.4388 56.6447C38.5462 56.2572 38.8821 56.1017 39.0621 55.6082C39.2406 55.1152 39.6303 54.7657 39.7565 54.4662C39.8813 54.1672 40.8177 53.8022 41.0673 53.2052C41.317 52.6082 41.7947 52.2402 41.8155 51.8697C41.8362 51.4992 42.2072 51.0617 42.3334 50.7622C42.4581 50.4627 42.6863 50.6932 42.6863 50.6932L43.3388 50.7502L43.5037 49.7119L43.9299 49.0804C43.9299 49.0804 43.5402 49.4299 44.569 48.1324C45.5979 46.8349 46.0081 46.1134 46.0081 46.1134L46.7873 45.4129L47.4052 45.2936L47.7811 44.3972C47.7811 44.3972 47.6948 43.9559 47.8211 43.6565C47.9458 43.3572 48.2128 42.8485 48.339 42.549C48.4637 42.2497 48.6941 42.023 48.6941 42.023L49.1279 43.3124L49.1337 42.3967L49.6115 42.03L50.3195 41.4349L51.6516 39.8034C51.6516 39.8034 52.2366 39.0492 52.3456 38.6615C52.4546 38.2737 52.7375 37.8535 52.8465 37.4657C52.9555 37.078 52.952 37.5367 52.954 37.0782C52.9555 36.6198 53.2416 36.199 53.2416 36.199L54.4105 35.149C54.4105 35.149 54.9401 35.0455 54.7481 34.5348C54.5581 34.0223 54.5405 33.9341 54.648 33.5466C54.7555 33.1591 55.1455 32.8096 55.1455 32.8096C55.1455 32.8096 55.592 31.8076 55.805 31.4911C56.018 31.1746 56.0931 30.6119 56.1431 30.8768C56.1951 31.1416 56.1356 32.251 56.1356 32.251L56.2925 32.5868C56.2925 32.5868 57.072 31.8862 57.2505 31.3932C57.429 30.9002 57.8361 30.639 57.8741 30.3568C57.9106 30.0748 58.743 29.1805 58.958 28.8653C59.1725 28.5501 59.1 28.6543 59.2785 28.1628C59.457 27.6698 59.5971 27.9173 59.7046 27.5313C59.8126 27.1453 60.0806 26.6348 60.0806 26.6348L60.1765 25.2434C60.1765 25.2434 60.3701 25.2971 60.5261 25.6331C60.6836 25.9688 61.1576 26.0592 61.1576 26.0592C61.1576 26.0592 61.445 25.18 61.641 24.7753C61.8365 24.3705 63.5601 21.931 63.5601 21.931L64.1486 20.718C64.1486 20.718 64.678 20.6145 64.803 20.3168C64.928 20.0175 65.565 19.528 65.565 19.528L66.3215 19.6564L66.8726 18.7257L67.0165 18.0562C67.0165 18.0562 66.842 17.6322 66.968 17.3327C67.093 17.0335 67.716 15.997 67.716 15.997C67.716 15.997 67.6105 15.926 67.7355 15.6268C67.86 15.3275 68.5145 14.9262 68.4455 14.5732C68.3765 14.2203 68.574 13.8168 68.6105 13.5348C68.647 13.2528 68.6675 12.8823 68.6675 12.8823C68.6675 12.8823 69.2511 12.5866 69.3586 12.1991C69.4661 11.8116 69.6291 11.2316 69.6291 11.2316L70.4236 11.0778L70.83 10.8151C70.83 10.8151 71.1315 10.4813 71.08 10.2181C71.0285 9.95483 71.245 9.17963 71.245 9.17963C71.245 9.17963 71.122 9.02038 71.1255 8.56168C71.1275 8.10318 71.3075 7.61148 71.3075 7.61148C71.3075 7.61148 71.7165 6.89173 71.7545 6.60953C71.791 6.32753 72.4111 5.74973 72.2726 5.50203C72.1326 5.25458 72.2745 5.04355 72.2955 4.6746C72.3165 4.30565 72.4605 3.63616 72.4605 3.63616C72.4605 3.63616 72.921 3.18114 72.923 2.72265L72.925 2.26416L71.4361 4.9638L71.4215 4.96123Z" fill="url(#paint0_linear_555_23)"></path><path d="M46.45 68.6793C46.45 68.6793 47.337 68.0098 47.2556 67.6508C47.1755 67.2913 47.9108 66.3718 47.9108 66.3718C47.9108 66.3718 48.2392 65.7333 47.9291 65.6143L47.6202 65.4948L47.181 65.2168L47.15 64.6583L48.228 65.2648L48.5562 64.5198C48.5562 64.5198 48.6932 64.0298 48.7831 64.1148C48.873 64.2003 49.4114 63.7618 49.4114 63.7618C49.4114 63.7618 49.4033 63.4098 49.4137 63.3018C49.4242 63.1943 49.6379 63.0393 49.6379 63.0393C49.6379 63.0393 49.8474 63.0273 49.8922 62.9118C49.9371 62.7963 49.869 62.4923 49.869 62.4923C49.869 62.4923 49.8987 62.3098 50.1008 62.2643C50.3028 62.2188 50.6843 62.0278 50.8073 62.1058C50.9303 62.1838 51.1443 62.0303 51.1443 62.0303L51.2783 61.6823L51.0283 61.6678L50.7628 61.5858L50.8108 61.3283C50.8108 61.3283 51.0573 61.1673 51.1578 61.1448C51.2583 61.1223 51.2208 60.9548 51.2208 60.9548L51.5493 60.5273L51.7058 60.2798L51.3808 60.2473L51.2033 59.6158C51.2033 59.6158 51.0083 59.3763 50.8208 59.1713C50.6333 58.9663 50.5128 58.7453 50.4753 58.5773C50.4373 58.4098 50.2538 58.0613 50.2538 58.0613L50.9168 58.6548C50.9168 58.6548 51.0743 58.7248 51.1373 58.8518C51.2008 58.9793 51.1903 59.0873 51.3403 59.1243C51.4898 59.1613 51.6878 59.2583 51.6878 59.2583C51.6878 59.2583 51.8308 59.5803 51.8533 59.6808C51.8758 59.7808 51.9088 59.7733 51.9953 59.6833C52.0808 59.5933 52.2598 59.1288 52.3943 59.0988C52.5293 59.0683 52.6668 58.8963 52.6668 58.8963L52.8868 58.7758L53.1358 58.1538L53.5243 57.6783L53.7703 57.1988L53.9158 57.0608L53.5858 56.8518L53.6258 56.5598L54.4258 56.6633C54.4258 56.6633 53.9903 55.9838 54.0923 55.9613C54.1923 55.9388 54.5443 55.9303 54.5443 55.9303L54.7093 56.0348L54.8958 55.6048L55.0603 55.3918L55.3993 54.8563L55.8653 53.9388L56.3203 53.1293L56.6118 52.8518L56.5513 52.5823L56.3413 52.2758L56.2808 52.0063C56.2808 52.0063 56.5723 51.7288 56.7893 51.7508C57.0068 51.7728 57.1343 52.0273 57.1343 52.0273C57.1343 52.0273 57.2473 52.2143 57.4038 51.9668C57.5608 51.7193 57.4853 51.3823 57.4853 51.3823C57.4853 51.3823 57.3053 51.2108 57.7093 51.1198C58.1133 51.0293 57.4783 51.6668 58.1133 51.0293C58.7473 50.3918 58.7393 50.0413 58.7393 50.0413L58.9483 49.7114L59.3073 49.4187L59.9483 48.4966C60.0228 48.197 59.7533 48.2574 59.9098 48.01C60.0668 47.7626 60.6193 47.7093 60.6193 47.7093L60.9863 47.7685L61.4173 46.5412L61.2593 46.1521L60.6228 46.1533L60.2998 45.6597L60.6218 45.5168L61.1603 45.396C61.1603 45.396 61.4588 44.8338 61.5868 45.0881C61.7148 45.3425 62.2393 45.7895 62.2393 45.7895L61.9758 44.9302C61.9758 44.9302 62.4518 43.9049 62.1538 43.8304C61.8538 43.7561 61.7948 44.1231 61.8088 43.554C61.8228 42.9849 61.8063 42.2823 61.8808 41.9827C61.9553 41.683 61.8578 41.5634 61.9553 41.683C62.0528 41.8026 62.4658 42.6991 62.5788 42.8861C62.6913 43.0731 62.6693 43.2903 62.7818 43.4773C62.8948 43.6643 62.9398 43.8664 62.9398 43.8664L63.4128 44.3971L63.6218 44.0672C63.6218 44.0672 63.9798 43.1394 64.1803 43.0929C64.3823 43.0476 64.5763 42.6504 64.5763 42.6504L64.9853 41.6402L65.4858 41.0327L65.0433 40.6367C65.0433 40.6367 64.8248 39.9782 65.0418 40.0002C65.2593 40.0223 65.8793 39.9539 65.8793 39.9539L66.3358 39.7808L66.4468 39.3313L66.9408 39.0084L67.1868 38.5287C67.1868 38.5287 67.4108 38.2662 67.5528 37.9514C67.6943 37.6366 67.4618 37.5472 67.7838 37.4043C68.1053 37.2615 68.5898 36.5868 68.5898 36.5868L68.3493 36.1455L68.6918 35.1502C68.8568 35.2547 69.3748 35.9863 69.3748 35.9863C69.3748 35.9863 69.4188 35.5519 69.5908 35.3718C69.7628 35.1918 69.8813 34.4591 69.8813 34.4591C69.8813 34.4591 70.1053 34.1966 70.0448 33.9271C69.9843 33.6576 70.4328 33.1326 70.6033 32.9528C70.7753 32.7727 71.1318 31.8451 71.1918 32.1132C71.2523 32.3813 71.4718 33.6763 71.4718 33.6763L70.7173 33.7749C70.7173 33.7749 71.4218 34.3938 71.6088 34.2811C71.7958 34.1684 72.2498 33.359 72.2498 33.359L72.0163 32.6345L72.2778 32.2221L72.4568 31.7575L72.6728 31.1431L72.9643 30.8655L73.2093 29.7506L73.4403 29.2035L73.8143 28.9782C73.8143 28.9782 73.6333 28.1712 73.7753 27.8564C73.9168 27.5416 74.3708 26.7336 74.3708 26.7336L74.9523 26.1785L75.2278 25.1984L75.2268 24.5619L75.6763 24.6734L75.6298 23.8361L75.9433 23.3413L76.1593 22.7269L76.3908 22.1798L76.8993 21.9243C76.8993 21.9243 76.9503 21.2053 77.0398 20.9743C77.1293 20.7434 77.3163 20.6294 77.4058 20.3971L77.4953 20.1648C77.4953 20.1648 77.5163 19.3124 77.7708 19.1846C78.0248 19.0569 76.6128 20.0103 76.6128 20.0103C76.6128 20.0103 76.2388 20.2357 76.0158 20.498C75.7918 20.7605 75.7398 20.843 75.4493 21.1204C75.1578 21.398 74.8083 22.0425 74.6213 22.1551C74.4343 22.2678 74.2998 22.298 74.1428 22.5454C73.9863 22.7928 74.0248 23.2795 73.6878 23.355C73.3508 23.4305 72.9688 23.3039 73.1118 23.6257C73.2548 23.9474 73.3903 24.5523 73.5853 24.7916C73.7808 25.0308 73.7433 25.1807 73.6843 25.5464C73.6248 25.9134 73.5213 26.7135 73.5213 26.7135L73.1218 25.2479L72.9033 24.5894L72.7608 24.2676C72.7608 24.2676 72.2218 24.3885 72.3493 24.6428C72.4773 24.8972 72.4248 24.9796 72.3508 25.2793C72.2763 25.579 71.8143 26.0364 71.8143 26.0364C71.8143 26.0364 71.5078 26.2467 71.4858 26.4639C71.4638 26.6811 71.4868 27.1004 71.4868 27.1004L71.4588 28.2373L71.0533 27.6914C71.0533 27.6914 70.6948 27.9841 70.6203 28.2838C70.5458 28.5835 70.2918 28.7112 70.1648 29.0934C70.0383 29.4755 69.7468 29.7531 69.6588 29.9852C69.5693 30.2175 68.8598 30.5182 68.6813 30.9828C68.5023 31.4474 68.1448 31.7399 68.1378 32.0232C68.1308 32.3077 67.8543 32.6527 67.7648 32.885C67.6753 33.1173 67.4953 32.9454 67.4953 32.9454L66.9938 32.9164L66.8903 33.7178L66.5768 34.2126C66.5768 34.2126 66.8683 33.935 66.1063 34.9548C65.3458 35.9745 65.0473 36.5353 65.0473 36.5353L64.4653 37.0903L63.9938 37.1961L63.7258 37.893C63.7258 37.893 63.8013 38.2298 63.7118 38.4621C63.6223 38.6944 63.4283 39.0916 63.3388 39.3239C63.2498 39.5562 63.0778 39.7363 63.0778 39.7363L62.7168 38.7574L62.7328 39.4612L62.3738 39.7539L61.8433 40.2267L60.8583 41.5075C60.8583 41.5075 60.4253 42.0999 60.3523 42.3993C60.2778 42.699 60.0688 43.0289 59.9943 43.3272C59.9203 43.6269 59.9118 43.2749 59.9203 43.6269C59.9283 43.9788 59.7193 44.3087 59.7193 44.3087L58.8458 45.1413C58.8458 45.1413 58.4418 45.2319 58.5998 45.621C58.7578 46.0101 58.7728 46.0775 58.6983 46.3758C58.6238 46.6755 58.3323 46.9531 58.3323 46.9531C58.3323 46.9531 58.0118 47.7324 57.8563 47.9783C57.6998 48.2257 57.6553 48.6601 57.6103 48.458C57.5648 48.2559 57.5858 47.4036 57.5858 47.4036L57.4583 47.1492C57.4583 47.1492 56.8763 47.7043 56.7498 48.0864C56.6233 48.4685 56.3168 48.6788 56.2948 48.896C56.2728 49.1132 55.6538 49.818 55.4968 50.0641C55.3398 50.3113 55.3923 50.229 55.2658 50.6113C55.1393 50.9933 55.0263 50.8063 54.9523 51.1058C54.8778 51.4058 54.6838 51.8028 54.6838 51.8028L54.6408 52.8723C54.6408 52.8723 54.4908 52.8353 54.3633 52.5808C54.2353 52.3263 53.8683 52.2673 53.8683 52.2673C53.8683 52.2673 53.6673 52.9493 53.5258 53.2628C53.3838 53.5758 52.1158 55.4878 52.1158 55.4878L51.6903 56.4308C51.6903 56.4308 51.2863 56.5213 51.1968 56.7538C51.1073 56.9858 50.6303 57.3758 50.6303 57.3758L50.0458 57.2948L49.643 58.0218L49.5466 58.5388C49.5466 58.5388 49.6895 58.8603 49.6001 59.0928C49.5107 59.3248 49.0566 60.1328 49.0566 60.1328C49.0566 60.1328 49.139 60.1853 49.0496 60.4178C48.9602 60.6498 48.4679 60.9728 48.5283 61.2423C48.5888 61.5118 48.4471 61.8263 48.425 62.0433C48.403 62.2608 48.396 62.5453 48.396 62.5453C48.396 62.5453 47.9547 62.7858 47.8804 63.0853C47.806 63.3853 47.6946 63.8348 47.6946 63.8348L47.0883 63.9703L46.7817 64.1808C46.7817 64.1808 46.5575 64.4433 46.6028 64.6453C46.6481 64.8473 46.4993 65.4453 46.4993 65.4453C46.4993 65.4453 46.5969 65.5653 46.6051 65.9168C46.6132 66.2688 46.4866 66.6508 46.4866 66.6508C46.4866 66.6508 46.1882 67.2133 46.1661 67.4303C46.1441 67.6478 45.6807 68.1053 45.7933 68.2923C45.906 68.4793 45.8015 68.6443 45.7945 68.9288C45.7876 69.2133 45.6912 69.7303 45.6912 69.7303C45.6912 69.7303 45.3475 70.0903 45.3556 70.4423L45.3638 70.7943L46.446 68.6893L46.45 68.6793Z" fill="#393939"></path><path d="M46.45 68.6793C46.45 68.6793 47.337 68.0098 47.2556 67.6508C47.1755 67.2913 47.9108 66.3718 47.9108 66.3718C47.9108 66.3718 48.2392 65.7333 47.9291 65.6143L47.6202 65.4948L47.181 65.2168L47.15 64.6583L48.228 65.2648L48.5562 64.5198C48.5562 64.5198 48.6932 64.0298 48.7831 64.1148C48.873 64.2003 49.4114 63.7618 49.4114 63.7618C49.4114 63.7618 49.4033 63.4098 49.4137 63.3018C49.4242 63.1943 49.6379 63.0393 49.6379 63.0393C49.6379 63.0393 49.8474 63.0273 49.8922 62.9118C49.9371 62.7963 49.869 62.4923 49.869 62.4923C49.869 62.4923 49.8987 62.3098 50.1008 62.2643C50.3028 62.2188 50.6843 62.0278 50.8073 62.1058C50.9303 62.1838 51.1443 62.0303 51.1443 62.0303L51.2783 61.6823L51.0283 61.6678L50.7628 61.5858L50.8108 61.3283C50.8108 61.3283 51.0573 61.1673 51.1578 61.1448C51.2583 61.1223 51.2208 60.9548 51.2208 60.9548L51.5493 60.5273L51.7058 60.2798L51.3808 60.2473L51.2033 59.6158C51.2033 59.6158 51.0083 59.3763 50.8208 59.1713C50.6333 58.9663 50.5128 58.7453 50.4753 58.5773C50.4373 58.4098 50.2538 58.0613 50.2538 58.0613L50.9168 58.6548C50.9168 58.6548 51.0743 58.7248 51.1373 58.8518C51.2008 58.9793 51.1903 59.0873 51.3403 59.1243C51.4898 59.1613 51.6878 59.2583 51.6878 59.2583C51.6878 59.2583 51.8308 59.5803 51.8533 59.6808C51.8758 59.7808 51.9088 59.7733 51.9953 59.6833C52.0808 59.5933 52.2598 59.1288 52.3943 59.0988C52.5293 59.0683 52.6668 58.8963 52.6668 58.8963L52.8868 58.7758L53.1358 58.1538L53.5243 57.6783L53.7703 57.1988L53.9158 57.0608L53.5858 56.8518L53.6258 56.5598L54.4258 56.6633C54.4258 56.6633 53.9903 55.9838 54.0923 55.9613C54.1923 55.9388 54.5443 55.9303 54.5443 55.9303L54.7093 56.0348L54.8958 55.6048L55.0603 55.3918L55.3993 54.8563L55.8653 53.9388L56.3203 53.1293L56.6118 52.8518L56.5513 52.5823L56.3413 52.2758L56.2808 52.0063C56.2808 52.0063 56.5723 51.7288 56.7893 51.7508C57.0068 51.7728 57.1343 52.0273 57.1343 52.0273C57.1343 52.0273 57.2473 52.2143 57.4038 51.9668C57.5608 51.7193 57.4853 51.3823 57.4853 51.3823C57.4853 51.3823 57.3053 51.2108 57.7093 51.1198C58.1133 51.0293 57.4783 51.6668 58.1133 51.0293C58.7473 50.3918 58.7393 50.0413 58.7393 50.0413L58.9483 49.7114L59.3073 49.4187L59.9483 48.4966C60.0228 48.197 59.7533 48.2574 59.9098 48.01C60.0668 47.7626 60.6193 47.7093 60.6193 47.7093L60.9863 47.7685L61.4173 46.5412L61.2593 46.1521L60.6228 46.1533L60.2998 45.6597L60.6218 45.5168L61.1603 45.396C61.1603 45.396 61.4588 44.8338 61.5868 45.0881C61.7148 45.3425 62.2393 45.7895 62.2393 45.7895L61.9758 44.9302C61.9758 44.9302 62.4518 43.9049 62.1538 43.8304C61.8538 43.7561 61.7948 44.1231 61.8088 43.554C61.8228 42.9849 61.8063 42.2823 61.8808 41.9827C61.9553 41.683 61.8578 41.5634 61.9553 41.683C62.0528 41.8026 62.4658 42.6991 62.5788 42.8861C62.6913 43.0731 62.6693 43.2903 62.7818 43.4773C62.8948 43.6643 62.9398 43.8664 62.9398 43.8664L63.4128 44.3971L63.6218 44.0672C63.6218 44.0672 63.9798 43.1394 64.1803 43.0929C64.3823 43.0476 64.5763 42.6504 64.5763 42.6504L64.9853 41.6402L65.4858 41.0327L65.0433 40.6367C65.0433 40.6367 64.8248 39.9782 65.0418 40.0002C65.2593 40.0223 65.8793 39.9539 65.8793 39.9539L66.3358 39.7808L66.4468 39.3313L66.9408 39.0084L67.1868 38.5287C67.1868 38.5287 67.4108 38.2662 67.5528 37.9514C67.6943 37.6366 67.4618 37.5472 67.7838 37.4043C68.1053 37.2615 68.5898 36.5868 68.5898 36.5868L68.3493 36.1455L68.6918 35.1502C68.8568 35.2547 69.3748 35.9863 69.3748 35.9863C69.3748 35.9863 69.4188 35.5519 69.5908 35.3718C69.7628 35.1918 69.8813 34.4591 69.8813 34.4591C69.8813 34.4591 70.1053 34.1966 70.0448 33.9271C69.9843 33.6576 70.4328 33.1326 70.6033 32.9528C70.7753 32.7727 71.1318 31.8451 71.1918 32.1132C71.2523 32.3813 71.4718 33.6763 71.4718 33.6763L70.7173 33.7749C70.7173 33.7749 71.4218 34.3938 71.6088 34.2811C71.7958 34.1684 72.2498 33.359 72.2498 33.359L72.0163 32.6345L72.2778 32.2221L72.4568 31.7575L72.6728 31.1431L72.9643 30.8655L73.2093 29.7506L73.4403 29.2035L73.8143 28.9782C73.8143 28.9782 73.6333 28.1712 73.7753 27.8564C73.9168 27.5416 74.3708 26.7336 74.3708 26.7336L74.9523 26.1785L75.2278 25.1984L75.2268 24.5619L75.6763 24.6734L75.6298 23.8361L75.9433 23.3413L76.1593 22.7269L76.3908 22.1798L76.8993 21.9243C76.8993 21.9243 76.9503 21.2053 77.0398 20.9743C77.1293 20.7434 77.3163 20.6294 77.4058 20.3971L77.4953 20.1648C77.4953 20.1648 77.5163 19.3124 77.7708 19.1846C78.0248 19.0569 76.6128 20.0103 76.6128 20.0103C76.6128 20.0103 76.2388 20.2357 76.0158 20.498C75.7918 20.7605 75.7398 20.843 75.4493 21.1204C75.1578 21.398 74.8083 22.0425 74.6213 22.1551C74.4343 22.2678 74.2998 22.298 74.1428 22.5454C73.9863 22.7928 74.0248 23.2795 73.6878 23.355C73.3508 23.4305 72.9688 23.3039 73.1118 23.6257C73.2548 23.9474 73.3903 24.5523 73.5853 24.7916C73.7808 25.0308 73.7433 25.1807 73.6843 25.5464C73.6248 25.9134 73.5213 26.7135 73.5213 26.7135L73.1218 25.2479L72.9033 24.5894L72.7608 24.2676C72.7608 24.2676 72.2218 24.3885 72.3493 24.6428C72.4773 24.8972 72.4248 24.9796 72.3508 25.2793C72.2763 25.579 71.8143 26.0364 71.8143 26.0364C71.8143 26.0364 71.5078 26.2467 71.4858 26.4639C71.4638 26.6811 71.4868 27.1004 71.4868 27.1004L71.4588 28.2373L71.0533 27.6914C71.0533 27.6914 70.6948 27.9841 70.6203 28.2838C70.5458 28.5835 70.2918 28.7112 70.1648 29.0934C70.0383 29.4755 69.7468 29.7531 69.6588 29.9852C69.5693 30.2175 68.8598 30.5182 68.6813 30.9828C68.5023 31.4474 68.1448 31.7399 68.1378 32.0232C68.1308 32.3077 67.8543 32.6527 67.7648 32.885C67.6753 33.1173 67.4953 32.9454 67.4953 32.9454L66.9938 32.9164L66.8903 33.7178L66.5768 34.2126C66.5768 34.2126 66.8683 33.935 66.1063 34.9548C65.3458 35.9745 65.0473 36.5353 65.0473 36.5353L64.4653 37.0903L63.9938 37.1961L63.7258 37.893C63.7258 37.893 63.8013 38.2298 63.7118 38.4621C63.6223 38.6944 63.4283 39.0916 63.3388 39.3239C63.2498 39.5562 63.0778 39.7363 63.0778 39.7363L62.7168 38.7574L62.7328 39.4612L62.3738 39.7539L61.8433 40.2267L60.8583 41.5075C60.8583 41.5075 60.4253 42.0999 60.3523 42.3993C60.2778 42.699 60.0688 43.0289 59.9943 43.3272C59.9203 43.6269 59.9118 43.2749 59.9203 43.6269C59.9283 43.9788 59.7193 44.3087 59.7193 44.3087L58.8458 45.1413C58.8458 45.1413 58.4418 45.2319 58.5998 45.621C58.7578 46.0101 58.7728 46.0775 58.6983 46.3758C58.6238 46.6755 58.3323 46.9531 58.3323 46.9531C58.3323 46.9531 58.0118 47.7324 57.8563 47.9783C57.6998 48.2257 57.6553 48.6601 57.6103 48.458C57.5648 48.2559 57.5858 47.4036 57.5858 47.4036L57.4583 47.1492C57.4583 47.1492 56.8763 47.7043 56.7498 48.0864C56.6233 48.4685 56.3168 48.6788 56.2948 48.896C56.2728 49.1132 55.6538 49.818 55.4968 50.0641C55.3398 50.3113 55.3923 50.229 55.2658 50.6113C55.1393 50.9933 55.0263 50.8063 54.9523 51.1058C54.8778 51.4058 54.6838 51.8028 54.6838 51.8028L54.6408 52.8723C54.6408 52.8723 54.4908 52.8353 54.3633 52.5808C54.2353 52.3263 53.8683 52.2673 53.8683 52.2673C53.8683 52.2673 53.6673 52.9493 53.5258 53.2628C53.3838 53.5758 52.1158 55.4878 52.1158 55.4878L51.6903 56.4308C51.6903 56.4308 51.2863 56.5213 51.1968 56.7538C51.1073 56.9858 50.6303 57.3758 50.6303 57.3758L50.0458 57.2948L49.643 58.0218L49.5466 58.5388C49.5466 58.5388 49.6895 58.8603 49.6001 59.0928C49.5107 59.3248 49.0566 60.1328 49.0566 60.1328C49.0566 60.1328 49.139 60.1853 49.0496 60.4178C48.9602 60.6498 48.4679 60.9728 48.5283 61.2423C48.5888 61.5118 48.4471 61.8263 48.425 62.0433C48.403 62.2608 48.396 62.5453 48.396 62.5453C48.396 62.5453 47.9547 62.7858 47.8804 63.0853C47.806 63.3853 47.6946 63.8348 47.6946 63.8348L47.0883 63.9703L46.7817 64.1808C46.7817 64.1808 46.5575 64.4433 46.6028 64.6453C46.6481 64.8473 46.4993 65.4453 46.4993 65.4453C46.4993 65.4453 46.5969 65.5653 46.6051 65.9168C46.6132 66.2688 46.4866 66.6508 46.4866 66.6508C46.4866 66.6508 46.1882 67.2133 46.1661 67.4303C46.1441 67.6478 45.6807 68.1053 45.7933 68.2923C45.906 68.4793 45.8015 68.6443 45.7945 68.9288C45.7876 69.2133 45.6912 69.7303 45.6912 69.7303C45.6912 69.7303 45.3475 70.0903 45.3556 70.4423L45.3638 70.7943L46.446 68.6893L46.45 68.6793Z" fill="url(#paint1_linear_555_23)"></path><path d="M56.6473 7.11702C56.6473 7.11702 56.2808 7.33742 56.0608 7.59502C55.8413 7.85267 55.7903 7.93347 55.5043 8.20477C55.2188 8.47737 54.8748 9.10797 54.6923 9.21877C54.5098 9.32952 54.3768 9.35832 54.2238 9.60082C54.0713 9.84327 54.1078 10.3195 53.7788 10.3944C53.4493 10.468 53.0748 10.344 53.2143 10.6598C53.3538 10.9755 53.2248 12.2511 53.2248 12.2511L53.0103 11.6061L52.8703 11.2904C52.8703 11.2904 52.3423 11.409 52.4678 11.6574C52.5938 11.9058 52.5418 11.9868 52.4698 12.2815C52.3968 12.575 51.9433 13.0229 51.9433 13.0229C51.9433 13.0229 51.6428 13.2283 51.6223 13.4421C51.5998 13.6548 51.6243 14.0662 51.6243 14.0662L51.5963 15.1815L51.1993 14.6473C51.1993 14.6473 50.8478 14.9336 50.7748 15.2284C50.7018 15.5219 50.4533 15.6477 50.3293 16.022C50.2053 16.3964 49.9199 16.669 49.8332 16.8965C49.7451 17.1241 49.0493 17.4194 48.8744 17.8746C48.6996 18.3297 48.348 18.616 48.3409 18.8959C48.3336 19.1744 48.063 19.5129 47.9763 19.7403C47.8882 19.968 47.7127 19.7989 47.7127 19.7989L47.2217 19.7707L47.1204 20.5553L46.8139 21.0404C46.8139 21.0404 47.0995 20.7678 46.3535 21.7682C45.6072 22.7672 45.3157 23.3181 45.3157 23.3181L44.7443 23.862L44.2819 23.9657L44.019 24.6485C44.019 24.6485 44.0925 24.9779 44.0058 25.2054C43.9177 25.4331 43.7279 25.8224 43.6412 26.0499C43.5531 26.2775 43.3855 26.4542 43.3855 26.4542L43.0315 25.4934L43.0471 26.1835L42.6954 26.4698L42.1749 26.9328L41.2089 28.1895C41.2089 28.1895 40.7843 28.7706 40.7126 29.0639C40.6395 29.3574 40.4347 29.6809 40.3629 29.9742C40.2912 30.2675 40.2821 29.9234 40.2898 30.2677C40.2975 30.6121 40.0927 30.9356 40.0927 30.9356L39.2357 31.7521C39.2357 31.7521 38.8391 31.8408 38.9951 32.2222C39.151 32.6036 39.1646 32.6696 39.0915 32.9632C39.0184 33.2567 38.7328 33.5293 38.7328 33.5293C38.7328 33.5293 38.419 34.2929 38.2651 34.5356C38.1111 34.7782 38.068 35.2034 38.0244 35.0057C37.9795 34.8082 37.9997 33.9715 37.9997 33.9715L37.8738 33.7217C37.8738 33.7217 37.3024 34.2656 37.1784 34.6399C37.0544 35.0143 36.7538 35.221 36.7329 35.4335C36.7107 35.6462 36.1034 36.3368 35.9508 36.5792C35.7969 36.8219 35.8491 36.7409 35.7251 37.1152C35.6012 37.4895 35.4904 37.307 35.4186 37.6003C35.3455 37.8938 35.1557 38.2831 35.1557 38.2831L35.1146 39.3324C35.1146 39.3324 34.9679 39.2965 34.842 39.0468C34.716 38.797 34.3568 38.7403 34.3568 38.7403C34.3568 38.7403 34.1598 39.4081 34.0208 39.7166C33.8819 40.0251 32.6393 41.8986 32.6393 41.8986L32.2225 42.824C32.2225 42.824 31.8259 42.9128 31.7392 43.1402C31.6511 43.3679 31.1827 43.7499 31.1827 43.7499L30.6109 43.6709L30.2163 44.3837L30.1223 44.8897C30.1223 44.8897 30.2619 45.2055 30.1751 45.433C30.0871 45.6606 29.6416 46.4542 29.6416 46.4542C29.6416 46.4542 29.7224 46.5051 29.6343 46.7328C29.5462 46.9604 29.0629 47.2766 29.1228 47.54C29.1814 47.8035 29.0438 48.1118 29.0216 48.3245C29.0007 48.537 28.9934 48.8156 28.9934 48.8156C28.9934 48.8156 28.5609 49.0509 28.4878 49.3445C28.4147 49.638 28.3057 50.0781 28.3057 50.0781L27.7116 50.2118L27.4109 50.4172C27.4109 50.4172 27.1911 50.6747 27.236 50.8722C27.281 51.0697 27.1348 51.6567 27.1348 51.6567C27.1348 51.6567 27.2306 51.7737 27.2385 52.1192C27.2462 52.4637 27.1222 52.8382 27.1222 52.8382C27.1222 52.8382 26.8293 53.3892 26.8084 53.6017C26.7862 53.8142 26.3328 54.2622 26.4438 54.4462C26.5546 54.6287 26.4515 54.7907 26.4458 55.0702C26.4401 55.3497 26.3445 55.8547 26.3445 55.8547C26.3445 55.8547 26.0081 56.2082 26.0158 56.5527L26.0235 56.8967L27.0847 54.8332C27.0847 54.8332 27.9535 54.1757 27.8752 53.8237C27.7957 53.4712 28.5184 52.5702 28.5184 52.5702C28.5184 52.5702 28.8394 51.9442 28.5368 51.8267C28.233 51.7107 28.829 51.4837 28.829 51.4837L29.1503 50.7537C29.1503 50.7537 29.2853 50.2722 29.3737 50.3567C29.4621 50.4412 29.9887 50.0105 29.9887 50.0105C29.9887 50.0105 29.981 49.6661 29.992 49.5591C30.0031 49.4521 30.2118 49.3014 30.2118 49.3014C30.2118 49.3014 30.4169 49.2901 30.4602 49.1757C30.5036 49.0626 30.4375 48.7655 30.4375 48.7655C30.4375 48.7655 30.4658 48.5852 30.6648 48.5414C30.8624 48.4965 31.2366 48.3097 31.357 48.3854C31.4777 48.4625 31.6864 48.3118 31.6864 48.3118L31.818 47.9711L31.5717 47.9564L31.3104 47.8759C31.3104 47.8759 31.5996 47.4641 31.6979 47.443C31.7974 47.4205 31.7598 47.2552 31.7598 47.2552L32.0813 46.8359L32.2352 46.5933L31.9157 46.5613C31.9157 46.5613 32.3575 45.907 32.3801 46.0064C32.4027 46.1059 32.4349 46.0985 32.5193 46.0101C32.6038 45.9217 32.7786 45.4665 32.9103 45.4366C33.042 45.4066 33.1773 45.2374 33.1773 45.2374L33.3934 45.119L33.6377 44.5096L34.0177 44.0431L34.2583 43.573L34.4012 43.4373L34.9031 43.0477C34.9031 43.0477 34.476 42.3805 34.5756 42.3593C34.675 42.3367 35.0194 42.329 35.0194 42.329L35.181 42.4307L35.3635 42.0092L35.525 41.8001L35.8577 41.2752L36.3144 40.3759L36.7598 39.5823L37.0454 39.3097L36.9868 39.0461L36.7814 38.7453L36.7229 38.4818C36.7229 38.4818 37.0085 38.2092 37.2212 38.2314C37.4338 38.2537 37.5596 38.5021 37.5596 38.5021C37.5596 38.5021 37.6704 38.6846 37.8232 38.4435C37.9771 38.2008 37.9022 37.8716 37.9022 37.8716C37.9022 37.8716 37.7254 37.7027 38.122 37.614C38.5185 37.5253 37.8963 38.15 38.5185 37.5253C39.1408 36.9006 39.1331 36.5562 39.1331 36.5562L39.3379 36.2327L39.6895 35.9465L40.3191 35.0433C40.3922 34.7498 40.1273 34.8085 40.2814 34.5672C40.4353 34.3246 40.9772 34.2719 40.9772 34.2719L41.3366 34.3301L41.7593 33.1262L41.6047 32.7446L40.9807 32.7466L40.6645 32.2633L42.5643 32.3921L43.713 31.026L43.9178 30.7026C43.9178 30.7026 44.2675 29.7923 44.4663 29.7471C44.6639 29.7022 44.8539 29.3142 44.8539 29.3142L45.2557 28.3229L45.7463 27.7282L45.3134 27.3407C45.3134 27.3407 45.0989 26.6957 45.3114 26.7166C45.5241 26.7389 46.1332 26.671 46.1332 26.671L46.5806 26.5015L46.6896 26.0613L47.1729 25.7451L47.4136 25.275C47.4136 25.275 47.6334 25.0173 47.7723 24.7088C47.9113 24.4004 47.6836 24.3123 47.998 24.1729C48.3124 24.0335 48.7892 23.3714 48.7892 23.3714L48.5538 22.9389L48.8898 21.9626C49.0515 22.0643 49.5595 22.7823 49.5595 22.7823C49.5595 22.7823 49.6026 22.3572 49.7715 22.1803C49.9404 22.0035 50.0553 21.285 50.0553 21.285C50.0553 21.285 50.2753 21.0274 50.2153 20.764C50.1568 20.5005 50.5948 19.9854 50.7638 19.8086C50.8008 19.7686 50.8493 19.6909 50.8998 19.5976L50.8903 19.2299C50.8903 19.2299 51.0453 18.8026 51.2928 18.4356C51.5398 18.0699 51.2928 18.4356 51.4628 18.0837C51.6333 17.7319 51.7718 17.626 51.7718 17.626L51.8363 17.1367L52.1453 16.679L52.3008 16.2516L53.1138 15.9339L53.1483 15.2908L53.8788 14.7949C54.0258 14.4741 54.4548 13.712 54.4548 13.712L55.0263 13.1681L55.2953 12.207L55.2933 11.5829L55.7333 11.6919L55.6878 10.8701L55.9943 10.385L56.2063 9.78297L56.4323 9.24702L56.9303 8.99667C56.9303 8.99667 56.9808 8.29292 57.0673 8.06547C57.1558 7.83777 57.3383 7.72702 57.4263 7.49932L57.5143 7.27167C57.5143 7.27167 57.5298 6.64372 57.6968 6.39502C57.4018 6.61207 56.6488 7.11952 56.6488 7.11952L56.6473 7.11702Z" fill="#393939"></path><path d="M56.6473 7.11702C56.6473 7.11702 56.2808 7.33742 56.0608 7.59502C55.8413 7.85267 55.7903 7.93347 55.5043 8.20477C55.2188 8.47737 54.8748 9.10797 54.6923 9.21877C54.5098 9.32952 54.3768 9.35832 54.2238 9.60082C54.0713 9.84327 54.1078 10.3195 53.7788 10.3944C53.4493 10.468 53.0748 10.344 53.2143 10.6598C53.3538 10.9755 53.2248 12.2511 53.2248 12.2511L53.0103 11.6061L52.8703 11.2904C52.8703 11.2904 52.3423 11.409 52.4678 11.6574C52.5938 11.9058 52.5418 11.9868 52.4698 12.2815C52.3968 12.575 51.9433 13.0229 51.9433 13.0229C51.9433 13.0229 51.6428 13.2283 51.6223 13.4421C51.5998 13.6548 51.6243 14.0662 51.6243 14.0662L51.5963 15.1815L51.1993 14.6473C51.1993 14.6473 50.8478 14.9336 50.7748 15.2284C50.7018 15.5219 50.4533 15.6477 50.3293 16.022C50.2053 16.3964 49.9199 16.669 49.8332 16.8965C49.7451 17.1241 49.0493 17.4194 48.8744 17.8746C48.6996 18.3297 48.348 18.616 48.3409 18.8959C48.3336 19.1744 48.063 19.5129 47.9763 19.7403C47.8882 19.968 47.7127 19.7989 47.7127 19.7989L47.2217 19.7707L47.1204 20.5553L46.8139 21.0404C46.8139 21.0404 47.0995 20.7678 46.3535 21.7682C45.6072 22.7672 45.3157 23.3181 45.3157 23.3181L44.7443 23.862L44.2819 23.9657L44.019 24.6485C44.019 24.6485 44.0925 24.9779 44.0058 25.2054C43.9177 25.4331 43.7279 25.8224 43.6412 26.0499C43.5531 26.2775 43.3855 26.4542 43.3855 26.4542L43.0315 25.4934L43.0471 26.1835L42.6954 26.4698L42.1749 26.9328L41.2089 28.1895C41.2089 28.1895 40.7843 28.7706 40.7126 29.0639C40.6395 29.3574 40.4347 29.6809 40.3629 29.9742C40.2912 30.2675 40.2821 29.9234 40.2898 30.2677C40.2975 30.6121 40.0927 30.9356 40.0927 30.9356L39.2357 31.7521C39.2357 31.7521 38.8391 31.8408 38.9951 32.2222C39.151 32.6036 39.1646 32.6696 39.0915 32.9632C39.0184 33.2567 38.7328 33.5293 38.7328 33.5293C38.7328 33.5293 38.419 34.2929 38.2651 34.5356C38.1111 34.7782 38.068 35.2034 38.0244 35.0057C37.9795 34.8082 37.9997 33.9715 37.9997 33.9715L37.8738 33.7217C37.8738 33.7217 37.3024 34.2656 37.1784 34.6399C37.0544 35.0143 36.7538 35.221 36.7329 35.4335C36.7107 35.6462 36.1034 36.3368 35.9508 36.5792C35.7969 36.8219 35.8491 36.7409 35.7251 37.1152C35.6012 37.4895 35.4904 37.307 35.4186 37.6003C35.3455 37.8938 35.1557 38.2831 35.1557 38.2831L35.1146 39.3324C35.1146 39.3324 34.9679 39.2965 34.842 39.0468C34.716 38.797 34.3568 38.7403 34.3568 38.7403C34.3568 38.7403 34.1598 39.4081 34.0208 39.7166C33.8819 40.0251 32.6393 41.8986 32.6393 41.8986L32.2225 42.824C32.2225 42.824 31.8259 42.9128 31.7392 43.1402C31.6511 43.3679 31.1827 43.7499 31.1827 43.7499L30.6109 43.6709L30.2163 44.3837L30.1223 44.8897C30.1223 44.8897 30.2619 45.2055 30.1751 45.433C30.0871 45.6606 29.6416 46.4542 29.6416 46.4542C29.6416 46.4542 29.7224 46.5051 29.6343 46.7328C29.5462 46.9604 29.0629 47.2766 29.1228 47.54C29.1814 47.8035 29.0438 48.1118 29.0216 48.3245C29.0007 48.537 28.9934 48.8156 28.9934 48.8156C28.9934 48.8156 28.5609 49.0509 28.4878 49.3445C28.4147 49.638 28.3057 50.0781 28.3057 50.0781L27.7116 50.2118L27.4109 50.4172C27.4109 50.4172 27.1911 50.6747 27.236 50.8722C27.281 51.0697 27.1348 51.6567 27.1348 51.6567C27.1348 51.6567 27.2306 51.7737 27.2385 52.1192C27.2462 52.4637 27.1222 52.8382 27.1222 52.8382C27.1222 52.8382 26.8293 53.3892 26.8084 53.6017C26.7862 53.8142 26.3328 54.2622 26.4438 54.4462C26.5546 54.6287 26.4515 54.7907 26.4458 55.0702C26.4401 55.3497 26.3445 55.8547 26.3445 55.8547C26.3445 55.8547 26.0081 56.2082 26.0158 56.5527L26.0235 56.8967L27.0847 54.8332C27.0847 54.8332 27.9535 54.1757 27.8752 53.8237C27.7957 53.4712 28.5184 52.5702 28.5184 52.5702C28.5184 52.5702 28.8394 51.9442 28.5368 51.8267C28.233 51.7107 28.829 51.4837 28.829 51.4837L29.1503 50.7537C29.1503 50.7537 29.2853 50.2722 29.3737 50.3567C29.4621 50.4412 29.9887 50.0105 29.9887 50.0105C29.9887 50.0105 29.981 49.6661 29.992 49.5591C30.0031 49.4521 30.2118 49.3014 30.2118 49.3014C30.2118 49.3014 30.4169 49.2901 30.4602 49.1757C30.5036 49.0626 30.4375 48.7655 30.4375 48.7655C30.4375 48.7655 30.4658 48.5852 30.6648 48.5414C30.8624 48.4965 31.2366 48.3097 31.357 48.3854C31.4777 48.4625 31.6864 48.3118 31.6864 48.3118L31.818 47.9711L31.5717 47.9564L31.3104 47.8759C31.3104 47.8759 31.5996 47.4641 31.6979 47.443C31.7974 47.4205 31.7598 47.2552 31.7598 47.2552L32.0813 46.8359L32.2352 46.5933L31.9157 46.5613C31.9157 46.5613 32.3575 45.907 32.3801 46.0064C32.4027 46.1059 32.4349 46.0985 32.5193 46.0101C32.6038 45.9217 32.7786 45.4665 32.9103 45.4366C33.042 45.4066 33.1773 45.2374 33.1773 45.2374L33.3934 45.119L33.6377 44.5096L34.0177 44.0431L34.2583 43.573L34.4012 43.4373L34.9031 43.0477C34.9031 43.0477 34.476 42.3805 34.5756 42.3593C34.675 42.3367 35.0194 42.329 35.0194 42.329L35.181 42.4307L35.3635 42.0092L35.525 41.8001L35.8577 41.2752L36.3144 40.3759L36.7598 39.5823L37.0454 39.3097L36.9868 39.0461L36.7814 38.7453L36.7229 38.4818C36.7229 38.4818 37.0085 38.2092 37.2212 38.2314C37.4338 38.2537 37.5596 38.5021 37.5596 38.5021C37.5596 38.5021 37.6704 38.6846 37.8232 38.4435C37.9771 38.2008 37.9022 37.8716 37.9022 37.8716C37.9022 37.8716 37.7254 37.7027 38.122 37.614C38.5185 37.5253 37.8963 38.15 38.5185 37.5253C39.1408 36.9006 39.1331 36.5562 39.1331 36.5562L39.3379 36.2327L39.6895 35.9465L40.3191 35.0433C40.3922 34.7498 40.1273 34.8085 40.2814 34.5672C40.4353 34.3246 40.9772 34.2719 40.9772 34.2719L41.3366 34.3301L41.7593 33.1262L41.6047 32.7446L40.9807 32.7466L40.6645 32.2633L42.5643 32.3921L43.713 31.026L43.9178 30.7026C43.9178 30.7026 44.2675 29.7923 44.4663 29.7471C44.6639 29.7022 44.8539 29.3142 44.8539 29.3142L45.2557 28.3229L45.7463 27.7282L45.3134 27.3407C45.3134 27.3407 45.0989 26.6957 45.3114 26.7166C45.5241 26.7389 46.1332 26.671 46.1332 26.671L46.5806 26.5015L46.6896 26.0613L47.1729 25.7451L47.4136 25.275C47.4136 25.275 47.6334 25.0173 47.7723 24.7088C47.9113 24.4004 47.6836 24.3123 47.998 24.1729C48.3124 24.0335 48.7892 23.3714 48.7892 23.3714L48.5538 22.9389L48.8898 21.9626C49.0515 22.0643 49.5595 22.7823 49.5595 22.7823C49.5595 22.7823 49.6026 22.3572 49.7715 22.1803C49.9404 22.0035 50.0553 21.285 50.0553 21.285C50.0553 21.285 50.2753 21.0274 50.2153 20.764C50.1568 20.5005 50.5948 19.9854 50.7638 19.8086C50.8008 19.7686 50.8493 19.6909 50.8998 19.5976L50.8903 19.2299C50.8903 19.2299 51.0453 18.8026 51.2928 18.4356C51.5398 18.0699 51.2928 18.4356 51.4628 18.0837C51.6333 17.7319 51.7718 17.626 51.7718 17.626L51.8363 17.1367L52.1453 16.679L52.3008 16.2516L53.1138 15.9339L53.1483 15.2908L53.8788 14.7949C54.0258 14.4741 54.4548 13.712 54.4548 13.712L55.0263 13.1681L55.2953 12.207L55.2933 11.5829L55.7333 11.6919L55.6878 10.8701L55.9943 10.385L56.2063 9.78297L56.4323 9.24702L56.9303 8.99667C56.9303 8.99667 56.9808 8.29292 57.0673 8.06547C57.1558 7.83777 57.3383 7.72702 57.4263 7.49932L57.5143 7.27167C57.5143 7.27167 57.5298 6.64372 57.6968 6.39502C57.4018 6.61207 56.6488 7.11952 56.6488 7.11952L56.6473 7.11702Z" fill="url(#paint2_linear_555_23)"></path><path d="M61.2743 65.6864C61.2743 65.6864 61.5878 65.4874 61.7738 65.2604C61.9598 65.0329 62.0013 64.9619 62.2438 64.7199C62.4858 64.4779 62.7708 63.9239 62.9283 63.8249C63.0858 63.7264 63.1983 63.6974 63.3283 63.4844C63.4563 63.2719 63.4148 62.8584 63.6998 62.7884C63.9843 62.7184 64.3113 62.8174 64.1833 62.5474C64.0558 62.2774 64.1428 61.1669 64.1428 61.1669L64.3403 61.7214L64.4683 61.9914C64.4683 61.9914 64.9233 61.8779 64.8098 61.6639C64.6968 61.4504 64.7398 61.3794 64.7973 61.1234C64.8543 60.8674 65.2398 60.4689 65.2398 60.4689C65.2398 60.4689 65.4968 60.2849 65.5108 60.0999C65.5243 59.9149 65.4978 59.5589 65.4978 59.5589L65.5003 58.5919L65.8553 59.0479C65.8553 59.0479 66.1543 58.7929 66.2113 58.5369C66.2688 58.2809 66.4823 58.1679 66.5828 57.8409C66.6833 57.5139 66.9258 57.2719 66.9978 57.0739C67.0693 56.8739 67.6673 56.6054 67.8098 56.2074C67.9533 55.8099 68.2518 55.5534 68.2528 55.3119C68.2538 55.0704 68.4818 54.7719 68.5533 54.5724C68.6253 54.3724 68.7818 54.5154 68.7818 54.5154L69.2083 54.5304L69.2803 53.8479L69.5368 53.4209C69.5368 53.4209 69.2943 53.6629 69.9213 52.7814C70.5478 51.8994 70.7913 51.4159 70.7913 51.4159L71.2758 50.9339L71.6748 50.8344L71.8888 50.2369C71.8888 50.2369 71.8188 49.9523 71.8888 49.7528C71.9608 49.553 72.1178 49.2131 72.1898 49.0134C72.2613 48.8136 72.4043 48.6571 72.4043 48.6571L72.7298 49.4833L72.7023 48.8848L73.0013 48.6299L73.4423 48.2185L74.2553 47.1093C74.2553 47.1093 74.6113 46.5984 74.6703 46.3422C74.7273 46.0862 74.8988 45.8026 74.9558 45.545C75.0128 45.2874 75.0268 45.5883 75.0133 45.289C74.9993 44.9898 75.1708 44.7061 75.1708 44.7061L75.8978 43.9817C75.8978 43.9817 76.2388 43.8972 76.0978 43.5692C75.9573 43.2412 75.9423 43.185 75.9998 42.929C76.0568 42.6731 76.2993 42.4311 76.2993 42.4311C76.2993 42.4311 76.5568 41.7626 76.6848 41.5499C76.8128 41.3372 76.8428 40.967 76.8848 41.1375C76.9273 41.3079 76.9258 42.0336 76.9258 42.0336L77.0388 42.2474C77.0388 42.2474 77.5238 41.765 77.6238 41.4364C77.7248 41.1095 77.9798 40.9255 77.9958 40.7403C78.0093 40.5553 78.5228 39.9441 78.6528 39.7312C78.7808 39.5185 78.7378 39.5895 78.8383 39.2625C78.9388 38.9356 79.0373 39.0915 79.0943 38.8355C79.1518 38.5795 79.3083 38.2381 79.3083 38.2381L79.3238 37.3274C79.3238 37.3274 79.4523 37.3559 79.5658 37.5696C79.6788 37.7834 79.9928 37.8259 79.9928 37.8259C79.9928 37.8259 80.1503 37.2429 80.2638 36.9724C80.3773 36.7019 81.4203 35.0529 81.4203 35.0529L81.7628 34.2427C81.7628 34.2427 82.1038 34.1582 82.1753 33.9585C82.2473 33.7587 82.6453 33.4183 82.6453 33.4183L83.1428 33.4766L83.4713 32.8514L83.5423 32.4104C83.5423 32.4104 83.4148 32.1405 83.4863 31.9407C83.5583 31.741 83.9298 31.0448 83.9298 31.0448C83.9298 31.0448 83.8588 31.0015 83.9308 30.8034C84.0028 30.6036 84.4153 30.321 84.3583 30.0927C84.3013 29.8644 84.4168 29.5953 84.4308 29.4103C84.4448 29.2253 84.4458 28.9838 84.4458 28.9838C84.4458 28.9838 84.8168 28.7704 84.8743 28.5144C84.9313 28.2584 85.0173 27.8736 85.0173 27.8736L85.5303 27.7467L85.7873 27.5625C85.7873 27.5625 85.9733 27.3351 85.9293 27.1648C85.8873 26.9944 86.0018 26.4824 86.0018 26.4824C86.0018 26.4824 85.9163 26.3829 85.9023 26.0837C85.8888 25.7844 85.9893 25.4575 85.9893 25.4575C85.9893 25.4575 86.2323 24.974 86.2463 24.789C86.2603 24.604 86.6453 24.2055 86.5473 24.0496C86.4483 23.8921 86.5333 23.7503 86.5343 23.5089C86.5353 23.2675 86.6068 22.8265 86.6068 22.8265C86.6068 22.8265 86.8923 22.5135 86.8783 22.2143L86.8648 21.915L85.9838 23.7254C85.9838 23.7254 85.2438 24.3124 85.3183 24.6159C85.3938 24.9193 84.7858 25.7157 84.7858 25.7157C84.7858 25.7157 84.5198 26.2656 84.7843 26.3604C85.0488 26.4553 84.5378 26.663 84.5378 26.663L84.2733 27.3033C84.2733 27.3033 84.1663 27.7234 84.0883 27.6521C84.0098 27.5807 83.5613 27.964 83.5613 27.964C83.5613 27.964 83.5748 28.2632 83.5673 28.3551C83.5593 28.4469 83.3808 28.5825 83.3808 28.5825C83.3808 28.5825 83.2033 28.5966 83.1673 28.6957C83.1313 28.7948 83.1953 29.0512 83.1953 29.0512C83.1953 29.0512 83.1743 29.2081 83.0038 29.2503C82.8333 29.2926 82.5128 29.4632 82.4063 29.3991C82.3003 29.3349 82.1218 29.469 82.1218 29.469L82.0138 29.7678L82.2273 29.7761L82.4553 29.8407C82.4553 29.8407 82.2123 30.2026 82.1278 30.2244C82.0423 30.2464 82.0788 30.3885 82.0788 30.3885L81.8078 30.7577L81.6793 30.9704L81.9563 30.9923C81.9563 30.9923 81.5853 31.5685 81.5633 31.4826C81.5413 31.3967 81.5133 31.404 81.4418 31.4822C81.3703 31.5604 81.2283 31.9581 81.1143 31.9874C80.9998 32.0151 80.8868 32.1641 80.8868 32.1641L80.7013 32.2701L80.5008 32.8041L80.1793 33.2161L79.9793 33.6286L79.8588 33.7495L79.4308 34.0974C79.4308 34.0974 79.8138 34.6676 79.7293 34.6879C79.6433 34.7099 79.3458 34.7234 79.3458 34.7234L79.2038 34.6384L79.0543 35.008L78.9188 35.1926L78.6403 35.6552L78.2628 36.4445L77.8913 37.1407L77.6488 37.3826L77.7058 37.6109L77.8903 37.8679L77.9473 38.0962C77.9473 38.0962 77.7048 38.3382 77.5198 38.3226C77.3348 38.3086 77.2213 38.0949 77.2213 38.0949C77.2213 38.0949 77.1228 37.9374 76.9933 38.1519C76.8648 38.3646 76.9348 38.6493 76.9348 38.6493C76.9348 38.6493 77.0913 38.7921 76.7488 38.8768C76.4078 38.9613 76.9343 38.4081 76.4078 38.9613C75.8803 39.5162 75.8938 39.8139 75.8938 39.8139L75.7223 40.0976L75.4233 40.3525L74.8963 41.1487C74.8388 41.4047 75.0673 41.3477 74.9378 41.5622C74.8093 41.7749 74.3398 41.8308 74.3398 41.8308L74.0273 41.7881L73.6843 42.8413L73.8268 43.1691L74.3678 43.1564L74.6518 43.5691L73.0008 43.4947L72.0303 44.7026L71.8588 44.9862C71.8588 44.9862 71.5733 45.7835 71.4028 45.8257C71.2323 45.8679 71.0753 46.2094 71.0753 46.2094L70.7463 47.0776L70.3323 47.6033L70.7163 47.9305C70.7163 47.9305 70.9138 48.4852 70.7288 48.4712C70.5438 48.4572 70.0178 48.5261 70.0178 48.5261L69.6338 48.6815L69.5478 49.0663L69.1353 49.3505L68.9348 49.763C68.9348 49.763 68.7488 49.9905 68.6353 50.2609C68.5218 50.5314 68.7198 50.6019 68.4498 50.7294C68.1803 50.8574 67.7793 51.4394 67.7793 51.4394L67.9928 51.8104L67.7213 52.6639C67.5798 52.5789 67.1243 51.9659 67.1243 51.9659C67.1243 51.9659 67.0948 52.3359 66.9518 52.4924C66.8093 52.6489 66.7223 53.2749 66.7223 53.2749C66.7223 53.2749 66.5363 53.5024 66.5933 53.7309C66.6503 53.9589 66.2798 54.4139 66.1373 54.5704C66.1048 54.6059 66.0648 54.6744 66.0228 54.7549L66.0373 55.0734C66.0373 55.0734 65.9113 55.4479 65.7033 55.7709C65.4968 56.0934 65.7033 55.7709 65.5628 56.0794C65.4223 56.3874 65.3033 56.4824 65.3033 56.4824L65.2573 56.9084L64.9978 57.3119L64.8718 57.6859L64.1718 57.9774L64.1543 58.5354L63.5313 58.9794C63.4098 59.2604 63.0538 59.9284 63.0538 59.9284L62.5688 60.4109L62.3538 61.2499L62.3663 61.7904L61.9818 61.7049L62.0368 62.4159L61.7803 62.8429L61.6083 63.3699L61.4228 63.8384L60.9953 64.0649C60.9953 64.0649 60.9663 64.6764 60.8943 64.8759C60.8228 65.0759 60.6668 65.1744 60.5948 65.3739L60.5233 65.5739C60.5233 65.5739 60.5218 66.1179 60.3828 66.3369C60.6353 66.1439 61.2778 65.6874 61.2778 65.6874L61.2743 65.6864Z" fill="#393939"></path><path d="M61.2743 65.6864C61.2743 65.6864 61.5878 65.4874 61.7738 65.2604C61.9598 65.0329 62.0013 64.9619 62.2438 64.7199C62.4858 64.4779 62.7708 63.9239 62.9283 63.8249C63.0858 63.7264 63.1983 63.6974 63.3283 63.4844C63.4563 63.2719 63.4148 62.8584 63.6998 62.7884C63.9843 62.7184 64.3113 62.8174 64.1833 62.5474C64.0558 62.2774 64.1428 61.1669 64.1428 61.1669L64.3403 61.7214L64.4683 61.9914C64.4683 61.9914 64.9233 61.8779 64.8098 61.6639C64.6968 61.4504 64.7398 61.3794 64.7973 61.1234C64.8543 60.8674 65.2398 60.4689 65.2398 60.4689C65.2398 60.4689 65.4968 60.2849 65.5108 60.0999C65.5243 59.9149 65.4978 59.5589 65.4978 59.5589L65.5003 58.5919L65.8553 59.0479C65.8553 59.0479 66.1543 58.7929 66.2113 58.5369C66.2688 58.2809 66.4823 58.1679 66.5828 57.8409C66.6833 57.5139 66.9258 57.2719 66.9978 57.0739C67.0693 56.8739 67.6673 56.6054 67.8098 56.2074C67.9533 55.8099 68.2518 55.5534 68.2528 55.3119C68.2538 55.0704 68.4818 54.7719 68.5533 54.5724C68.6253 54.3724 68.7818 54.5154 68.7818 54.5154L69.2083 54.5304L69.2803 53.8479L69.5368 53.4209C69.5368 53.4209 69.2943 53.6629 69.9213 52.7814C70.5478 51.8994 70.7913 51.4159 70.7913 51.4159L71.2758 50.9339L71.6748 50.8344L71.8888 50.2369C71.8888 50.2369 71.8188 49.9523 71.8888 49.7528C71.9608 49.553 72.1178 49.2131 72.1898 49.0134C72.2613 48.8136 72.4043 48.6571 72.4043 48.6571L72.7298 49.4833L72.7023 48.8848L73.0013 48.6299L73.4423 48.2185L74.2553 47.1093C74.2553 47.1093 74.6113 46.5984 74.6703 46.3422C74.7273 46.0862 74.8988 45.8026 74.9558 45.545C75.0128 45.2874 75.0268 45.5883 75.0133 45.289C74.9993 44.9898 75.1708 44.7061 75.1708 44.7061L75.8978 43.9817C75.8978 43.9817 76.2388 43.8972 76.0978 43.5692C75.9573 43.2412 75.9423 43.185 75.9998 42.929C76.0568 42.6731 76.2993 42.4311 76.2993 42.4311C76.2993 42.4311 76.5568 41.7626 76.6848 41.5499C76.8128 41.3372 76.8428 40.967 76.8848 41.1375C76.9273 41.3079 76.9258 42.0336 76.9258 42.0336L77.0388 42.2474C77.0388 42.2474 77.5238 41.765 77.6238 41.4364C77.7248 41.1095 77.9798 40.9255 77.9958 40.7403C78.0093 40.5553 78.5228 39.9441 78.6528 39.7312C78.7808 39.5185 78.7378 39.5895 78.8383 39.2625C78.9388 38.9356 79.0373 39.0915 79.0943 38.8355C79.1518 38.5795 79.3083 38.2381 79.3083 38.2381L79.3238 37.3274C79.3238 37.3274 79.4523 37.3559 79.5658 37.5696C79.6788 37.7834 79.9928 37.8259 79.9928 37.8259C79.9928 37.8259 80.1503 37.2429 80.2638 36.9724C80.3773 36.7019 81.4203 35.0529 81.4203 35.0529L81.7628 34.2427C81.7628 34.2427 82.1038 34.1582 82.1753 33.9585C82.2473 33.7587 82.6453 33.4183 82.6453 33.4183L83.1428 33.4766L83.4713 32.8514L83.5423 32.4104C83.5423 32.4104 83.4148 32.1405 83.4863 31.9407C83.5583 31.741 83.9298 31.0448 83.9298 31.0448C83.9298 31.0448 83.8588 31.0015 83.9308 30.8034C84.0028 30.6036 84.4153 30.321 84.3583 30.0927C84.3013 29.8644 84.4168 29.5953 84.4308 29.4103C84.4448 29.2253 84.4458 28.9838 84.4458 28.9838C84.4458 28.9838 84.8168 28.7704 84.8743 28.5144C84.9313 28.2584 85.0173 27.8736 85.0173 27.8736L85.5303 27.7467L85.7873 27.5625C85.7873 27.5625 85.9733 27.3351 85.9293 27.1648C85.8873 26.9944 86.0018 26.4824 86.0018 26.4824C86.0018 26.4824 85.9163 26.3829 85.9023 26.0837C85.8888 25.7844 85.9893 25.4575 85.9893 25.4575C85.9893 25.4575 86.2323 24.974 86.2463 24.789C86.2603 24.604 86.6453 24.2055 86.5473 24.0496C86.4483 23.8921 86.5333 23.7503 86.5343 23.5089C86.5353 23.2675 86.6068 22.8265 86.6068 22.8265C86.6068 22.8265 86.8923 22.5135 86.8783 22.2143L86.8648 21.915L85.9838 23.7254C85.9838 23.7254 85.2438 24.3124 85.3183 24.6159C85.3938 24.9193 84.7858 25.7157 84.7858 25.7157C84.7858 25.7157 84.5198 26.2656 84.7843 26.3604C85.0488 26.4553 84.5378 26.663 84.5378 26.663L84.2733 27.3033C84.2733 27.3033 84.1663 27.7234 84.0883 27.6521C84.0098 27.5807 83.5613 27.964 83.5613 27.964C83.5613 27.964 83.5748 28.2632 83.5673 28.3551C83.5593 28.4469 83.3808 28.5825 83.3808 28.5825C83.3808 28.5825 83.2033 28.5966 83.1673 28.6957C83.1313 28.7948 83.1953 29.0512 83.1953 29.0512C83.1953 29.0512 83.1743 29.2081 83.0038 29.2503C82.8333 29.2926 82.5128 29.4632 82.4063 29.3991C82.3003 29.3349 82.1218 29.469 82.1218 29.469L82.0138 29.7678L82.2273 29.7761L82.4553 29.8407C82.4553 29.8407 82.2123 30.2026 82.1278 30.2244C82.0423 30.2464 82.0788 30.3885 82.0788 30.3885L81.8078 30.7577L81.6793 30.9704L81.9563 30.9923C81.9563 30.9923 81.5853 31.5685 81.5633 31.4826C81.5413 31.3967 81.5133 31.404 81.4418 31.4822C81.3703 31.5604 81.2283 31.9581 81.1143 31.9874C80.9998 32.0151 80.8868 32.1641 80.8868 32.1641L80.7013 32.2701L80.5008 32.8041L80.1793 33.2161L79.9793 33.6286L79.8588 33.7495L79.4308 34.0974C79.4308 34.0974 79.8138 34.6676 79.7293 34.6879C79.6433 34.7099 79.3458 34.7234 79.3458 34.7234L79.2038 34.6384L79.0543 35.008L78.9188 35.1926L78.6403 35.6552L78.2628 36.4445L77.8913 37.1407L77.6488 37.3826L77.7058 37.6109L77.8903 37.8679L77.9473 38.0962C77.9473 38.0962 77.7048 38.3382 77.5198 38.3226C77.3348 38.3086 77.2213 38.0949 77.2213 38.0949C77.2213 38.0949 77.1228 37.9374 76.9933 38.1519C76.8648 38.3646 76.9348 38.6493 76.9348 38.6493C76.9348 38.6493 77.0913 38.7921 76.7488 38.8768C76.4078 38.9613 76.9343 38.4081 76.4078 38.9613C75.8803 39.5162 75.8938 39.8139 75.8938 39.8139L75.7223 40.0976L75.4233 40.3525L74.8963 41.1487C74.8388 41.4047 75.0673 41.3477 74.9378 41.5622C74.8093 41.7749 74.3398 41.8308 74.3398 41.8308L74.0273 41.7881L73.6843 42.8413L73.8268 43.1691L74.3678 43.1564L74.6518 43.5691L73.0008 43.4947L72.0303 44.7026L71.8588 44.9862C71.8588 44.9862 71.5733 45.7835 71.4028 45.8257C71.2323 45.8679 71.0753 46.2094 71.0753 46.2094L70.7463 47.0776L70.3323 47.6033L70.7163 47.9305C70.7163 47.9305 70.9138 48.4852 70.7288 48.4712C70.5438 48.4572 70.0178 48.5261 70.0178 48.5261L69.6338 48.6815L69.5478 49.0663L69.1353 49.3505L68.9348 49.763C68.9348 49.763 68.7488 49.9905 68.6353 50.2609C68.5218 50.5314 68.7198 50.6019 68.4498 50.7294C68.1803 50.8574 67.7793 51.4394 67.7793 51.4394L67.9928 51.8104L67.7213 52.6639C67.5798 52.5789 67.1243 51.9659 67.1243 51.9659C67.1243 51.9659 67.0948 52.3359 66.9518 52.4924C66.8093 52.6489 66.7223 53.2749 66.7223 53.2749C66.7223 53.2749 66.5363 53.5024 66.5933 53.7309C66.6503 53.9589 66.2798 54.4139 66.1373 54.5704C66.1048 54.6059 66.0648 54.6744 66.0228 54.7549L66.0373 55.0734C66.0373 55.0734 65.9113 55.4479 65.7033 55.7709C65.4968 56.0934 65.7033 55.7709 65.5628 56.0794C65.4223 56.3874 65.3033 56.4824 65.3033 56.4824L65.2573 56.9084L64.9978 57.3119L64.8718 57.6859L64.1718 57.9774L64.1543 58.5354L63.5313 58.9794C63.4098 59.2604 63.0538 59.9284 63.0538 59.9284L62.5688 60.4109L62.3538 61.2499L62.3663 61.7904L61.9818 61.7049L62.0368 62.4159L61.7803 62.8429L61.6083 63.3699L61.4228 63.8384L60.9953 64.0649C60.9953 64.0649 60.9663 64.6764 60.8943 64.8759C60.8228 65.0759 60.6668 65.1744 60.5948 65.3739L60.5233 65.5739C60.5233 65.5739 60.5218 66.1179 60.3828 66.3369C60.6353 66.1439 61.2778 65.6874 61.2778 65.6874L61.2743 65.6864Z" fill="url(#paint3_linear_555_23)"></path><path d="M119 38.48C119 38.48 119.23 58.024 119.69 58.992C120.17 59.9845 120.81 60.766 121.61 61.3365C122.41 61.932 123.29 62.23 124.25 62.23C125.21 62.23 126.09 61.932 126.89 61.3365C127.69 60.766 128.32 59.9845 128.78 58.992C129.26 58.024 129.676 38.48 129.676 38.48H119ZM124.183 38.48C124.503 38.4744 124.673 38.48 125 38.48V56.4235C125 56.6965 124.93 56.92 124.79 57.0935C124.65 57.292 124.47 57.3915 124.25 57.3915C124.03 57.3915 123.84 57.292 123.68 57.0935C123.54 56.92 123.47 56.6965 123.47 56.4235V38.48C123.693 38.48 123.903 38.4849 124.183 38.48Z" fill="white"></path><path d="M110.404 40.6572C111.364 40.6572 112.129 40.9022 112.701 41.3922C113.293 41.8617 113.712 42.5047 113.957 43.3213C114.222 44.1175 114.355 45.0157 114.355 46.0161V62.3988H109.792V45.7098C109.792 45.4853 109.71 45.3015 109.547 45.1586C109.404 44.9953 109.22 44.9137 108.996 44.9137C108.792 44.9137 108.608 44.9953 108.445 45.1586C108.302 45.3015 108.23 45.4853 108.23 45.7098V62.3988H103.637V40.9634H107.281V42.0352H107.587C107.751 41.6882 108.098 41.3717 108.628 41.0859C109.18 40.8001 109.772 40.6572 110.404 40.6572Z" fill="white"></path><path d="M92.8236 62.7048C91.8436 62.7048 90.9861 62.4703 90.2511 62.0008C89.5366 61.5108 88.9856 60.8678 88.5976 60.0713C88.2096 59.2548 88.0156 58.3463 88.0156 57.3463V54.3453C88.0156 53.3653 88.2506 52.4673 88.7201 51.6503C89.2101 50.8338 89.8631 50.1908 90.6796 49.7213C91.4966 49.2313 92.3946 48.9864 93.3746 48.9864H94.2016V45.0668C94.2016 44.8422 94.1196 44.6585 93.9566 44.5156C93.7931 44.3523 93.5991 44.2706 93.3746 44.2706C93.1706 44.2706 92.9866 44.3523 92.8236 44.5156C92.6601 44.6585 92.5786 44.8422 92.5786 45.0668V48.1902H88.0156V46.0161C88.0156 45.0157 88.2506 44.1175 88.7201 43.3213C89.2101 42.5047 89.8631 41.8617 90.6796 41.3922C91.4966 40.9022 92.3946 40.6572 93.3746 40.6572C94.3751 40.6572 95.2731 40.9022 96.0691 41.3922C96.8861 41.8617 97.5291 42.5047 97.9986 43.3213C98.4886 44.1175 98.7336 45.0157 98.7336 46.0161V62.3988H95.5181V61.3268H95.2121C95.0076 61.7763 94.6711 62.1233 94.2016 62.3683C93.7316 62.5928 93.2726 62.7048 92.8236 62.7048ZM93.3746 58.4483C93.5991 58.4483 93.7931 58.3773 93.9566 58.2343C94.1196 58.0708 94.2016 57.8768 94.2016 57.6523V53.2733H93.3746C93.1706 53.2733 92.9866 53.3553 92.8236 53.5183C92.6601 53.6613 92.5786 53.8453 92.5786 54.0698V57.6523C92.5786 57.8768 92.6601 58.0708 92.8236 58.2343C92.9866 58.3773 93.1706 58.4483 93.3746 58.4483Z" fill="white"></path><path d="M79.0938 40.0446V38.6973H83.7172V40.0446H79.0938ZM79.0938 62.3986V40.9633H83.7172V62.3986H79.0938Z" fill="white"></path><path d="M56.1016 40.0446V38.6973H60.7256V40.0446H56.1016ZM56.1016 62.3986V40.9633H60.7256V62.3986H56.1016Z" fill="white"></path><path d="M45.0431 62.3982H40.4805V40.9629H45.1656C46.2884 40.9629 47.2989 41.2283 48.1972 41.7591C49.1158 42.2694 49.8405 42.9635 50.3715 43.8413C50.9225 44.7192 51.198 45.7195 51.198 46.8423C51.198 48.0876 50.8615 49.0777 50.1875 49.8126C49.5343 50.5477 48.7586 51.0577 47.8603 51.3437V51.8032C48.7586 51.9457 49.4629 52.3642 49.9732 53.0587C50.504 53.7322 50.7695 54.6102 50.7695 55.6922V62.4287H46.2374V55.6922C46.2374 55.4672 46.1557 55.2837 45.9924 55.1407C45.8291 54.9777 45.6351 54.8957 45.4106 54.8957H45.0431V62.3982ZM45.0431 48.7715H45.6249C45.9107 48.7715 46.1455 48.6796 46.3292 48.4959C46.5334 48.2917 46.6355 48.057 46.6355 47.7916V46.0155C46.6355 45.7297 46.5334 45.4949 46.3292 45.3112C46.1455 45.1071 45.9107 45.005 45.6249 45.005H45.0431V48.7715Z" fill="white"></path><path d="M11.3906 62.3982V40.9629H19.9648V44.9437H15.9533V49.3839H18.6174V53.9772H15.9533V58.4477H19.9648V62.3982H11.3906Z" fill="white"></path></g></g></g><defs><linearGradient id="paint0_linear_555_23" x1="56.7805" y1="38.466" x2="56.7805" y2="70.9662" gradientUnits="userSpaceOnUse"><stop stop-color="#0B2FE1"></stop><stop offset="0.00104191" stop-color="white"></stop><stop offset="0.80006" stop-color="#0B2FE1"></stop></linearGradient><linearGradient id="paint1_linear_555_23" x1="56.7798" y1="38.4661" x2="56.7798" y2="70.9663" gradientUnits="userSpaceOnUse"><stop stop-color="#0B2FE1"></stop><stop offset="0.00104191" stop-color="white"></stop><stop offset="0.80006" stop-color="#0B2FE1"></stop></linearGradient><linearGradient id="paint2_linear_555_23" x1="56.7818" y1="38.4665" x2="56.7818" y2="70.9667" gradientUnits="userSpaceOnUse"><stop stop-color="#0B2FE1"></stop><stop offset="0.00104191" stop-color="white"></stop><stop offset="0.80006" stop-color="#0B2FE1"></stop></linearGradient><linearGradient id="paint3_linear_555_23" x1="56.7793" y1="38.4662" x2="56.7793" y2="70.9664" gradientUnits="userSpaceOnUse"><stop stop-color="#0B2FE1"></stop><stop offset="0.00104191" stop-color="white"></stop><stop offset="0.80006" stop-color="#0B2FE1"></stop></linearGradient><clipPath id="clip0_555_23"><rect width="140" height="70" fill="white" transform="translate(0 0.5)"></rect></clipPath><clipPath id="clip1_555_23"><rect width="140" height="72.9894" fill="white" transform="translate(0 0.235352)"></rect></clipPath><clipPath id="clip2_555_23"><rect width="140" height="73" fill="white" transform="translate(0 0.22998)"></rect></clipPath></defs></svg>