<svg xmlns="http://www.w3.org/2000/svg" width="40" height="41" viewBox="0 0 40 41" fill="none"><rect x="0.25" y="0.75" width="39.5" height="39.5" rx="7.75" fill="black"></rect><rect x="0.25" y="0.75" width="39.5" height="39.5" rx="7.75" stroke="#686868" stroke-width="0.5"></rect><g clip-path="url(#clip0_555_352)"><path d="M18.5 20.5C15.7425 20.5 13.5 18.2575 13.5 15.5C13.5 12.7425 15.7425 10.5 18.5 10.5C21.2575 10.5 23.5 12.7425 23.5 15.5C23.5 18.2575 21.2575 20.5 18.5 20.5ZM29.9133 26.445L29.1017 25.9767C29.24 25.5625 29.3333 25.1275 29.3333 24.6667C29.3333 24.2058 29.2408 23.7708 29.1017 23.3567L29.9133 22.8883C30.3117 22.6583 30.4483 22.1483 30.2183 21.75C29.9875 21.3508 29.4792 21.2133 29.08 21.445L28.2692 21.9133C27.6817 21.2517 26.8992 20.7675 26 20.585V19.6675C26 19.2075 25.6267 18.8342 25.1667 18.8342C24.7067 18.8342 24.3333 19.2075 24.3333 19.6675V20.585C23.4342 20.7683 22.6517 21.2525 22.0642 21.9133L21.2533 21.445C20.8533 21.2142 20.345 21.3508 20.115 21.75C19.885 22.1492 20.0217 22.6583 20.42 22.8883L21.2317 23.3567C21.0933 23.7708 21 24.2058 21 24.6667C21 25.1275 21.0925 25.5625 21.2317 25.9767L20.42 26.445C20.0217 26.675 19.885 27.185 20.115 27.5833C20.27 27.8508 20.5492 28 20.8375 28C20.9783 28 21.1217 27.9642 21.2533 27.8883L22.0642 27.42C22.6517 28.0817 23.4342 28.5658 24.3333 28.7483V29.6658C24.3333 30.1258 24.7067 30.4992 25.1667 30.4992C25.6267 30.4992 26 30.1258 26 29.6658V28.7483C26.8992 28.565 27.6817 28.0808 28.2692 27.42L29.08 27.8883C29.2117 27.9642 29.355 28 29.4958 28C29.7842 28 30.0642 27.8508 30.2183 27.5833C30.4483 27.1842 30.3117 26.675 29.9133 26.445ZM25.1667 25.9167C24.4775 25.9167 23.9167 25.3558 23.9167 24.6667C23.9167 23.9775 24.4775 23.4167 25.1667 23.4167C25.8558 23.4167 26.4167 23.9775 26.4167 24.6667C26.4167 25.3558 25.8558 25.9167 25.1667 25.9167ZM17.6667 24.6667C17.6667 23.7967 17.8225 22.9642 18.095 22.1875C14.1483 22.3992 11 25.6683 11 29.6667C11 30.1267 11.3733 30.5 11.8333 30.5H20.4575C18.7567 29.125 17.6667 27.0242 17.6667 24.6667Z" fill="white"></path></g><defs><clipPath id="clip0_555_352"><rect width="20" height="20" fill="white" transform="translate(11 10.5)"></rect></clipPath></defs></svg>