<svg xmlns="http://www.w3.org/2000/svg" width="40" height="41" viewBox="0 0 40 41" fill="none"><rect x="0.25" y="0.75" width="39.5" height="39.5" rx="7.75" fill="black"></rect><rect x="0.25" y="0.75" width="39.5" height="39.5" rx="7.75" stroke="#686868" stroke-width="0.5"></rect><g clip-path="url(#clip0_555_363)"><path d="M10 11C10 9.619 11.119 8.5 12.5 8.5C13.881 8.5 15 9.619 15 11C15 12.381 13.881 13.5 12.5 13.5C11.119 13.5 10 12.381 10 11ZM23 14.5H11C9.346 14.5 8 15.846 8 17.5V25.5H10V32.5H12V25.5H14V32.5H16V16.5H23V14.5ZM29 8.5H15.599C16.154 9.187 16.5 10.049 16.5 11C16.5 11.531 16.391 12.036 16.203 12.5H25V18.5H18V23.5H26V21.5H30V23.5H32V11.5C32 9.843 30.657 8.5 29 8.5Z" fill="white"></path></g><defs><clipPath id="clip0_555_363"><rect width="24" height="24" fill="white" transform="translate(8 8.5)"></rect></clipPath></defs></svg>