<svg xmlns="http://www.w3.org/2000/svg" width="148" height="167" viewBox="0 0 148 167" fill="none"><path d="M110.359 7.04128C110.359 7.04128 107.503 9.07686 107.722 10.2164C107.945 11.3555 105.535 14.1922 105.535 14.1922C105.535 14.1922 104.442 16.1802 105.408 16.5859L106.374 16.9918L107.736 17.9116L107.784 19.6798L104.438 17.6649L103.337 19.9896C103.337 19.9896 102.86 21.5235 102.582 21.2464C102.307 20.9652 100.569 22.3034 100.569 22.3034C100.569 22.3034 100.564 23.4154 100.521 23.7574C100.476 24.0993 99.7903 24.5668 99.7903 24.5668C99.7903 24.5668 99.1303 24.5832 98.9778 24.9482C98.8252 25.3132 99.0153 26.2743 99.0153 26.2743C99.0153 26.2743 98.9039 26.8497 98.2621 26.9752C97.6214 27.1007 96.4032 27.6708 96.0193 27.4125C95.6367 27.1542 94.9512 27.6218 94.9512 27.6218L94.4959 28.7088L95.2842 28.7785L96.1138 29.0622L95.9394 29.874C95.9394 29.874 95.1486 30.3603 94.8265 30.4216C94.5068 30.4822 94.6097 31.0194 94.6097 31.0194L93.5368 32.337L93.0209 33.1046L94.0454 33.2374L94.5455 35.2503C94.5455 35.2503 95.1401 36.0226 95.7117 36.6902C96.2845 37.3576 96.6418 38.0633 96.7483 38.5963C96.85 39.1298 97.401 40.2441 97.401 40.2441L95.363 38.3102C95.363 38.3102 94.8737 38.0708 94.6824 37.6658C94.4935 37.2601 94.5383 36.9182 94.0684 36.7842C93.5986 36.6539 92.9822 36.3283 92.9822 36.3283C92.9822 36.3283 92.5595 35.3001 92.499 34.9806C92.4384 34.6612 92.3294 34.6804 92.0521 34.9552C91.7748 35.2299 91.1669 36.6819 90.7394 36.7657C90.3119 36.8494 89.8639 37.38 89.8639 37.38L89.1591 37.7384L88.315 39.6792L87.0471 41.1477L86.2285 42.6375L85.7574 43.0631L86.7795 43.7519L86.6233 44.6692L84.1081 44.2692C84.1081 44.2692 85.4196 46.4567 85.0962 46.5179C84.7778 46.5786 83.6673 46.5738 83.6673 46.5738L83.1562 46.2295L82.529 47.5724L81.9901 48.2315L80.8723 49.891L79.3174 52.7468L77.8122 55.2601L76.8676 56.1077L77.0347 56.9639L77.6717 57.9503L77.8388 58.8064C77.8388 58.8064 76.8955 59.654 76.2125 59.5655C75.5295 59.4771 75.1516 58.6623 75.1516 58.6623C75.1516 58.6623 74.8126 58.0621 74.2967 58.8297C73.7808 59.5973 73.9855 60.6643 73.9855 60.6643C73.9855 60.6643 74.5389 61.2227 73.2565 61.4738C71.9728 61.7213 74.0327 59.77 71.9728 61.7213C69.9141 63.6761 69.9057 64.7887 69.9057 64.7887L69.2178 65.8122L68.0601 66.7017L65.9554 69.5545C65.6951 70.4943 66.55 70.3269 66.0305 71.095C65.511 71.8633 63.7623 71.9798 63.7623 71.9798L62.6095 71.761L61.1369 75.6008L61.5983 76.8437L63.6013 76.8992L64.5737 78.4865L63.5468 78.9097L61.8369 79.2409C61.8369 79.2409 60.8463 80.9865 60.4648 80.1722C60.0846 79.358 58.4712 77.8963 58.4712 77.8963L59.2248 80.6374C59.2248 80.6374 57.6263 83.835 58.5648 84.0958C59.5033 84.3564 59.7225 83.2063 59.6256 84.999C59.5287 86.7955 59.5178 89.0158 59.2538 89.9561C58.9935 90.8959 59.2914 91.2821 58.9935 90.8959C58.6968 90.5098 57.4739 87.6383 57.1385 87.0376C56.7994 86.4373 56.8878 85.7535 56.5524 85.1526C56.2133 84.5525 56.0915 83.9099 56.0915 83.9099L54.6504 82.1923L53.9627 83.2157C53.9627 83.2157 52.7501 86.1158 52.1089 86.2413C51.4677 86.3669 50.8212 87.6007 50.8212 87.6007L49.4368 90.7567L47.8052 92.6278L49.1627 93.9173C49.1627 93.9173 49.7907 96.0163 49.1077 95.9277C48.4247 95.8393 46.4625 95.9977 46.4625 95.9977L45.0076 96.5011L44.6172 97.9108L43.0321 98.884L42.2137 100.374C42.2137 100.374 41.4841 101.183 41.0095 102.161C40.5356 103.143 41.2603 103.445 40.2329 103.865C39.2055 104.285 37.6162 106.374 37.6162 106.374L38.3326 107.789L37.1619 110.903C36.6508 110.558 35.0843 108.199 35.0843 108.199C35.0843 108.199 34.9076 109.566 34.3495 110.116C33.7913 110.666 33.3507 112.975 33.3507 112.975C33.3507 112.975 32.6212 113.784 32.7878 114.636C32.9549 115.493 31.4917 117.109 30.934 117.662C30.3764 118.216 29.1638 121.115 29.0003 120.259C28.8332 119.403 28.2608 115.297 28.2608 115.297L30.654 115.054C30.654 115.054 28.4882 113.034 27.8883 113.37C27.2888 113.71 25.7826 116.223 25.7826 116.223L26.4524 118.536L25.5922 119.812L24.9875 121.26L24.2527 123.178L23.3088 124.026L22.4353 127.526L21.6587 129.229L20.4594 129.905C20.4594 129.905 20.9572 132.473 20.4826 133.452C20.0086 134.433 18.4983 136.943 18.4983 136.943L16.6111 138.642L15.6542 141.715L15.5986 143.722L14.1908 143.33L14.2607 145.98L13.2286 147.511L12.4936 149.429L11.717 151.132L10.0902 151.892C10.0902 151.892 9.86278 154.154 9.56064 154.881C9.25862 155.606 8.6587 155.942 8.35656 156.668L8.05442 157.393C8.05442 157.393 7.91055 160.084 7.0975 160.465C6.28432 160.847 10.825 157.966 10.825 157.966C10.825 157.966 12.0244 157.29 12.754 156.48C13.4835 155.671 13.6559 155.419 14.5993 154.568C15.5431 153.72 16.7048 151.715 17.3049 151.379C17.9042 151.039 18.3317 150.955 18.848 150.191C19.3644 149.427 19.2892 147.887 20.3579 147.678C21.4266 147.469 22.6175 147.906 22.1985 146.877C21.7757 145.849 21.4032 143.922 20.8123 143.148C20.2177 142.376 20.3515 141.907 20.5699 140.752C20.7885 139.599 21.1879 137.08 21.1879 137.08L22.3131 141.744L22.9412 143.843L23.3639 144.871C23.3639 144.871 25.0742 144.54 24.6933 143.725C24.3125 142.912 24.4844 142.656 24.7489 141.719C25.0134 140.782 26.5107 139.378 26.5107 139.378C26.5107 139.378 27.4957 138.74 27.5846 138.06C27.673 137.376 27.6395 136.049 27.6395 136.049L27.83 132.461L29.0574 134.221C29.0574 134.221 30.2149 133.331 30.4753 132.391C30.7355 131.451 31.5492 131.074 31.9852 129.877C32.4174 128.681 33.3612 127.834 33.6669 127.107C33.969 126.382 36.237 125.497 36.8417 124.049C37.4464 122.601 38.6034 121.708 38.6537 120.81C38.7038 119.911 39.6022 118.85 39.908 118.124C40.21 117.397 40.7628 117.956 40.7628 117.956L42.3432 118.095L42.7426 115.576L43.7747 114.045C43.7747 114.045 42.8308 114.892 45.3227 111.746C47.8145 108.599 48.808 106.849 48.808 106.849L50.6951 105.15L52.1918 104.861L53.1022 102.686C53.1022 102.686 52.8933 101.616 53.199 100.89C53.5011 100.164 54.1476 98.9303 54.4533 98.2039C54.7554 97.4781 55.3135 96.9282 55.3135 96.9282L56.3642 100.056L56.378 97.8347L57.5355 96.9452L59.2502 95.502L62.4763 91.5451C62.4763 91.5451 63.8931 89.7157 64.1571 88.7754C64.4211 87.835 65.1065 86.8158 65.3705 85.8754C65.6345 84.9351 65.626 86.0476 65.6309 84.9355C65.6345 83.8236 66.3272 82.8032 66.3272 82.8032L69.1585 80.2566C69.1585 80.2566 70.4409 80.0055 69.9759 78.7668C69.5157 77.524 69.4733 77.3099 69.7337 76.3701C69.9941 75.4303 70.9386 74.5827 70.9386 74.5827C70.9386 74.5827 72.02 72.1525 72.5359 71.3849C73.0518 70.6173 73.2334 69.2525 73.3545 69.8951C73.4805 70.5372 73.3364 73.228 73.3364 73.228L73.7166 74.0423C73.7166 74.0423 75.6046 72.3432 76.0369 71.1476C76.4692 69.9519 77.4549 69.3183 77.547 68.6338C77.6354 67.9499 79.6517 65.7809 80.1724 65.0164C80.6919 64.252 80.5163 64.5047 80.9486 63.3127C81.3809 62.117 81.72 62.7172 81.9804 61.7811C82.242 60.8449 82.891 59.6069 82.891 59.6069L83.1235 56.2322C83.1235 56.2322 83.5922 56.3625 83.97 57.1773C84.3515 57.9915 85.4995 58.2109 85.4995 58.2109C85.4995 58.2109 86.1958 56.0785 86.6705 55.0969C87.144 54.1152 91.3183 48.1986 91.3183 48.1986L92.7436 45.2567C92.7436 45.2567 94.026 45.0057 94.3288 44.2835C94.6315 43.5577 96.1743 42.3704 96.1743 42.3704L98.0065 42.682L99.341 40.4246L99.6898 38.8008C99.6898 38.8008 99.2672 37.7725 99.5723 37.0462C99.8751 36.3205 101.384 33.8067 101.384 33.8067C101.384 33.8067 101.128 33.6345 101.431 32.9087C101.733 32.183 103.318 31.2097 103.151 30.3535C102.984 29.4975 103.462 28.5189 103.55 27.835C103.639 27.151 103.688 26.2525 103.688 26.2525C103.688 26.2525 105.102 25.5353 105.362 24.5954C105.622 23.6556 106.017 22.2491 106.017 22.2491L107.941 21.876L108.926 21.2388C108.926 21.2388 109.656 20.4293 109.531 19.7909C109.407 19.1524 109.931 17.2723 109.931 17.2723C109.931 17.2723 109.633 16.8861 109.642 15.7736C109.647 14.6615 110.082 13.469 110.082 13.469C110.082 13.469 111.073 11.7234 111.165 11.0389C111.253 10.355 112.755 8.95365 112.42 8.3529C112.081 7.75275 112.425 7.24094 112.475 6.34611C112.526 5.45128 112.875 3.82754 112.875 3.82754C112.875 3.82754 113.99 2.72398 113.995 1.61199L114 0.5L110.394 7.04753L110.359 7.04128Z" fill="white"></path><path d="M49.665 161.379C49.665 161.379 51.8247 159.757 51.6264 158.888C51.4314 158.018 53.2218 155.791 53.2218 155.791C53.2218 155.791 54.0214 154.245 53.2663 153.957L52.5142 153.667L51.4448 152.994L51.3694 151.642L53.994 153.11L54.7931 151.306C54.7931 151.306 55.1267 150.12 55.3457 150.326C55.5646 150.533 56.8755 149.471 56.8755 149.471C56.8755 149.471 56.8557 148.619 56.8811 148.357C56.9066 148.097 57.4269 147.721 57.4269 147.721C57.4269 147.721 57.9371 147.692 58.0462 147.413C58.1554 147.133 57.9896 146.397 57.9896 146.397C57.9896 146.397 58.0619 145.955 58.554 145.845C59.0458 145.735 59.9747 145.272 60.2742 145.461C60.5736 145.65 61.0947 145.278 61.0947 145.278L61.421 144.436L60.8123 144.4L60.1658 144.202L60.2827 143.578C60.2827 143.578 60.8829 143.189 61.1276 143.134C61.3723 143.08 61.281 142.674 61.281 142.674L62.0808 141.639L62.4618 141.039L61.6705 140.961L61.2383 139.432C61.2383 139.432 60.7636 138.852 60.307 138.355C59.8505 137.859 59.5571 137.324 59.4658 136.917C59.3733 136.511 58.9265 135.667 58.9265 135.667L60.5408 137.105C60.5408 137.105 60.9243 137.274 61.0777 137.582C61.2323 137.89 61.2067 138.152 61.5719 138.241C61.9359 138.331 62.418 138.566 62.418 138.566C62.418 138.566 62.7662 139.346 62.821 139.589C62.8758 139.831 62.9561 139.813 63.1667 139.595C63.3749 139.377 63.8107 138.252 64.1382 138.18C64.4669 138.106 64.8017 137.689 64.8017 137.689L65.3374 137.398L65.9436 135.891L66.8896 134.74L67.4885 133.579L67.8428 133.245L67.0393 132.739L67.1367 132.032L69.0846 132.282C69.0846 132.282 68.0242 130.637 68.2726 130.582C68.516 130.528 69.3731 130.507 69.3731 130.507L69.7748 130.76L70.2289 129.719L70.6295 129.203L71.4549 127.907L72.5895 125.685L73.6973 123.725L74.4071 123.053L74.2598 122.4L73.7485 121.658L73.6012 121.005C73.6012 121.005 74.3109 120.333 74.8393 120.387C75.3689 120.44 75.6793 121.056 75.6793 121.056C75.6793 121.056 75.9544 121.509 76.3355 120.91C76.7177 120.31 76.5339 119.494 76.5339 119.494C76.5339 119.494 76.0956 119.079 77.0793 118.859C78.063 118.64 76.5169 120.183 78.063 118.64C79.6067 117.096 79.5872 116.247 79.5872 116.247L80.0961 115.448L80.9702 114.739L82.5309 112.507C82.7123 111.781 82.0561 111.927 82.4371 111.328C82.8194 110.729 84.1647 110.6 84.1647 110.6L85.0582 110.744L86.1077 107.772L85.723 106.829L84.1732 106.832L83.3867 105.637L84.1707 105.291L85.4819 104.999C85.4819 104.999 86.2087 103.637 86.5204 104.253C86.832 104.869 88.1091 105.951 88.1091 105.951L87.4675 103.871C87.4675 103.871 88.6265 101.388 87.9009 101.208C87.1704 101.028 87.0268 101.916 87.0609 100.538C87.095 99.1602 87.0548 97.459 87.2362 96.7334C87.4176 96.0078 87.1802 95.7181 87.4176 96.0078C87.655 96.2974 88.6606 98.4681 88.9357 98.9209C89.2096 99.3738 89.1561 99.8997 89.43 100.353C89.7051 100.805 89.8147 101.295 89.8147 101.295L90.9663 102.58L91.4752 101.781C91.4752 101.781 92.3469 99.5343 92.8351 99.4218C93.3269 99.3121 93.7993 98.3502 93.7993 98.3502L94.7951 95.9042L96.0137 94.4331L94.9363 93.4742C94.9363 93.4742 94.4043 91.8795 94.9327 91.9329C95.4622 91.9863 96.9718 91.8207 96.9718 91.8207L98.0833 91.4017L98.3536 90.3132L99.5564 89.5312L100.155 88.3696C100.155 88.3696 100.701 87.734 101.047 86.9718C101.391 86.2095 100.825 85.9931 101.609 85.647C102.392 85.3011 103.571 83.6674 103.571 83.6674L102.986 82.5988L103.82 80.1888C104.222 80.4418 105.483 82.2133 105.483 82.2133C105.483 82.2133 105.59 81.1614 106.009 80.7254C106.427 80.2894 106.716 78.5152 106.716 78.5152C106.716 78.5152 107.261 77.8796 107.114 77.227C106.967 76.5745 108.059 75.3032 108.474 74.8677C108.893 74.4317 109.761 72.1855 109.907 72.8347C110.054 73.484 110.589 76.6198 110.589 76.6198L108.752 76.8585C108.752 76.8585 110.467 78.3571 110.922 78.0842C111.377 77.8114 112.483 75.8514 112.483 75.8514L111.914 74.097L112.551 73.0985L112.987 71.9735L113.513 70.4856L114.223 69.8134L114.819 67.1138L115.382 65.789L116.292 65.2433C116.292 65.2433 115.851 63.2892 116.197 62.5269C116.542 61.7648 117.647 59.8081 117.647 59.8081L119.063 58.4641L119.734 56.0908L119.731 54.5495L120.826 54.8194L120.713 52.792L121.476 51.5939L122.002 50.106L122.565 48.7813L123.804 48.1625C123.804 48.1625 123.928 46.4216 124.146 45.8622C124.364 45.303 124.819 45.0269 125.037 44.4644L125.255 43.9019C125.255 43.9019 125.306 41.838 125.926 41.5285C126.544 41.2192 123.106 43.5279 123.106 43.5279C123.106 43.5279 122.195 44.0736 121.652 44.7089C121.107 45.3445 120.98 45.5442 120.273 46.2159C119.563 46.8882 118.712 48.4487 118.257 48.7215C117.802 48.9944 117.474 49.0675 117.092 49.6666C116.711 50.2657 116.805 51.4441 115.984 51.6269C115.164 51.8099 114.234 51.5033 114.582 52.2824C114.93 53.0614 115.26 54.5263 115.735 55.1056C116.211 55.6849 116.119 56.0478 115.976 56.9333C115.831 57.822 115.579 59.7594 115.579 59.7594L114.606 56.2105L114.074 54.616L113.727 53.8369C113.727 53.8369 112.415 54.1295 112.725 54.7454C113.037 55.3613 112.909 55.561 112.729 56.2867C112.547 57.0123 111.423 58.12 111.423 58.12C111.423 58.12 110.676 58.6291 110.623 59.155C110.569 59.681 110.625 60.6963 110.625 60.6963L110.557 63.4493L109.57 62.1275C109.57 62.1275 108.697 62.8363 108.515 63.5619C108.334 64.2876 107.715 64.5969 107.406 65.5223C107.098 66.4475 106.389 67.1199 106.174 67.6819C105.956 68.2444 104.229 68.9724 103.794 70.0974C103.358 71.2226 102.488 71.9308 102.471 72.6167C102.454 73.3058 101.781 74.141 101.563 74.7036C101.345 75.2661 100.907 74.8499 100.907 74.8499L99.6855 74.7797L99.4334 76.7203L98.6701 77.9184C98.6701 77.9184 99.3799 77.2462 97.5245 79.7156C95.6729 82.1847 94.9461 83.5428 94.9461 83.5428L93.529 84.8867L92.381 85.1428L91.7284 86.8303C91.7284 86.8303 91.9123 87.6458 91.6944 88.2085C91.4764 88.771 91.0041 89.7328 90.7862 90.2953C90.5695 90.8578 90.1507 91.2938 90.1507 91.2938L89.2717 88.9234L89.3107 90.6278L88.4366 91.3365L87.1449 92.4813L84.7466 95.5827C84.7466 95.5827 83.6923 97.0172 83.5146 97.7423C83.3332 98.468 82.8243 99.2667 82.6429 99.9892C82.4627 100.715 82.442 99.8625 82.4627 100.715C82.4822 101.567 81.9733 102.366 81.9733 102.366L79.8465 104.382C79.8465 104.382 78.8628 104.601 79.2475 105.544C79.6322 106.486 79.6688 106.649 79.4874 107.371C79.306 108.097 78.5962 108.769 78.5962 108.769C78.5962 108.769 77.8158 110.656 77.4372 111.252C77.0562 111.851 76.9478 112.903 76.8383 112.413C76.7275 111.924 76.7786 109.86 76.7786 109.86L76.4682 109.244C76.4682 109.244 75.0511 110.588 74.7431 111.513C74.4351 112.439 73.6888 112.948 73.6353 113.474C73.5817 114 72.0745 115.706 71.6923 116.302C71.31 116.901 71.4378 116.702 71.1298 117.627C70.8218 118.552 70.5467 118.1 70.3665 118.825C70.1851 119.551 69.7128 120.513 69.7128 120.513L69.6081 123.102C69.6081 123.102 69.2428 123.013 68.9324 122.397C68.6207 121.78 67.7272 121.637 67.7272 121.637C67.7272 121.637 67.2378 123.289 66.8932 124.048C66.5475 124.806 63.4601 129.436 63.4601 129.436L62.4241 131.719C62.4241 131.719 61.4404 131.938 61.2225 132.501C61.0046 133.063 59.8432 134.007 59.8432 134.007L58.42 133.811L57.4393 135.572L57.2047 136.824C57.2047 136.824 57.5526 137.602 57.3348 138.165C57.1172 138.727 56.0115 140.683 56.0115 140.683C56.0115 140.683 56.2123 140.811 55.9946 141.374C55.7769 141.935 54.5782 142.718 54.7253 143.37C54.8725 144.023 54.5275 144.784 54.4738 145.31C54.4201 145.836 54.4032 146.525 54.4032 146.525C54.4032 146.525 53.3286 147.108 53.1477 147.833C52.9666 148.559 52.6953 149.648 52.6953 149.648L51.219 149.976L50.4725 150.486C50.4725 150.486 49.9268 151.121 50.0371 151.61C50.1474 152.1 49.7851 153.548 49.7851 153.548C49.7851 153.548 50.0227 153.838 50.0425 154.689C50.0624 155.542 49.7541 156.467 49.7541 156.467C49.7541 156.467 49.0275 157.829 48.9738 158.354C48.9201 158.881 47.7918 159.989 48.0661 160.441C48.3405 160.894 48.0859 161.294 48.069 161.983C48.0521 162.672 47.8175 163.924 47.8175 163.924C47.8175 163.924 46.9805 164.795 47.0003 165.648L47.0202 166.5L49.6553 161.403L49.665 161.379Z" fill="white"></path><path d="M74.4492 11.2585C74.4492 11.2585 73.5585 11.7953 73.0238 12.4227C72.4903 13.0502 72.3663 13.247 71.6712 13.9078C70.9773 14.5717 70.1412 16.1076 69.6977 16.3774C69.2541 16.6472 68.9308 16.7173 68.559 17.3079C68.1883 17.8984 68.277 19.0584 67.4774 19.2408C66.6766 19.4199 65.7664 19.1179 66.1054 19.8871C66.4445 20.6561 66.1309 23.7628 66.1309 23.7628L65.6096 22.192L65.2693 21.4229C65.2693 21.4229 63.9861 21.7119 64.2911 22.3169C64.5973 22.9218 64.4709 23.1192 64.2959 23.8368C64.1185 24.5517 63.0163 25.6426 63.0163 25.6426C63.0163 25.6426 62.2859 26.1428 62.2361 26.6637C62.1814 27.1817 62.241 28.1837 62.241 28.1837L62.1729 30.9L61.208 29.599C61.208 29.599 60.3537 30.2962 60.1763 31.0143C59.9989 31.7291 59.3949 32.0355 59.0935 32.9472C58.7921 33.8589 58.0985 34.5229 57.8878 35.077C57.6736 35.6314 55.9825 36.3506 55.5576 37.4592C55.1327 38.5677 54.278 39.2649 54.2608 39.9466C54.2432 40.625 53.5853 41.4494 53.3746 42.0033C53.1605 42.5579 52.7341 42.1461 52.7341 42.1461L51.5406 42.0774L51.2945 43.9882L50.5496 45.1697C50.5496 45.1697 51.2437 44.5058 49.4305 46.9423C47.6167 49.3754 46.9082 50.7173 46.9082 50.7173L45.5195 52.042L44.3955 52.2946L43.7565 53.9576C43.7565 53.9576 43.9353 54.7598 43.7245 55.3139C43.5105 55.8684 43.049 56.8166 42.8383 57.3706C42.6242 57.9251 42.217 58.3553 42.217 58.3553L41.3564 56.0154L41.3944 57.6962L40.5397 58.3933L39.2745 59.5211L36.9267 62.5819C36.9267 62.5819 35.8948 63.9972 35.7204 64.7116C35.5428 65.4264 35.045 66.2143 34.8706 66.9286C34.6962 67.643 34.6741 66.8048 34.693 67.6435C34.7117 68.4823 34.2139 69.2701 34.2139 69.2701L32.131 71.2587C32.131 71.2587 31.1671 71.4748 31.5461 72.4038C31.925 73.3327 31.9581 73.4935 31.7804 74.2084C31.6027 74.9233 30.9086 75.5872 30.9086 75.5872C30.9086 75.5872 30.1459 77.4471 29.7719 78.0381C29.3977 78.6291 29.2928 79.6647 29.187 79.1832C29.0777 78.7022 29.1269 76.6642 29.1269 76.6642L28.8208 76.0559C28.8208 76.0559 27.4321 77.3805 27.1307 78.2923C26.8294 79.204 26.0988 79.7076 26.048 80.2251C25.9939 80.7432 24.5179 82.425 24.1471 83.0155C23.773 83.6065 23.9 83.4093 23.5986 84.3209C23.2973 85.2326 23.028 84.788 22.8537 85.5025C22.676 86.2173 22.2147 87.1655 22.2147 87.1655L22.1147 89.721C22.1147 89.721 21.7582 89.6337 21.4521 89.0254C21.1459 88.4171 20.273 88.2789 20.273 88.2789C20.273 88.2789 19.7941 89.9055 19.4563 90.6569C19.1186 91.4081 16.0986 95.9712 16.0986 95.9712L15.0855 98.2252C15.0855 98.2252 14.1216 98.4413 13.9109 98.9953C13.6967 99.5499 12.5584 100.48 12.5584 100.48L11.1686 100.288L10.2095 102.024L9.98104 103.256C9.98104 103.256 10.3203 104.025 10.1095 104.579C9.89549 105.134 8.81283 107.067 8.81283 107.067C8.81283 107.067 9.00922 107.191 8.79509 107.745C8.58097 108.3 7.40632 109.07 7.5519 109.711C7.69433 110.353 7.3599 111.104 7.30582 111.622C7.25502 112.14 7.2374 112.818 7.2374 112.818C7.2374 112.818 6.18622 113.391 6.00856 114.106C5.83089 114.821 5.56597 115.893 5.56597 115.893L4.12203 116.219L3.39107 116.719C3.39107 116.719 2.85685 117.346 2.9661 117.827C3.07535 118.308 2.72001 119.738 2.72001 119.738C2.72001 119.738 2.95285 120.023 2.97205 120.864C2.99077 121.703 2.68951 122.615 2.68951 122.615C2.68951 122.615 1.97762 123.957 1.92683 124.475C1.87275 124.992 0.770899 126.084 1.04068 126.532C1.30986 126.976 1.05939 127.371 1.04542 128.051C1.03157 128.732 0.799334 129.962 0.799334 129.962C0.799334 129.962 -0.0183982 130.823 0.000316395 131.662L0.0190309 132.5L2.59837 127.474C2.59837 127.474 4.70984 125.873 4.51965 125.016C4.32631 124.157 6.08293 121.963 6.08293 121.963C6.08293 121.963 6.86311 120.438 6.12753 120.152C5.38915 119.869 6.83771 119.316 6.83771 119.316L7.61874 117.538C7.61874 117.538 7.94686 116.366 8.16171 116.571C8.37656 116.777 9.65645 115.728 9.65645 115.728C9.65645 115.728 9.63773 114.89 9.66447 114.629C9.69132 114.368 10.1987 114.001 10.1987 114.001C10.1987 114.001 10.6972 113.974 10.8023 113.695C10.9079 113.42 10.7471 112.696 10.7471 112.696C10.7471 112.696 10.8159 112.257 11.2997 112.15C11.7798 112.041 12.6893 111.586 12.9821 111.77C13.2753 111.958 13.7827 111.591 13.7827 111.591L14.1024 110.761L13.5038 110.725L12.8688 110.529C12.8688 110.529 13.5717 109.526 13.8106 109.475C14.0523 109.42 13.9611 109.018 13.9611 109.018L14.7423 107.996L15.1165 107.405L14.3398 107.328C14.3398 107.328 15.4137 105.734 15.4685 105.976C15.5235 106.218 15.6017 106.2 15.807 105.985C16.0124 105.77 16.4372 104.661 16.7573 104.588C17.0773 104.515 17.4061 104.103 17.4061 104.103L17.9315 103.815L18.5252 102.33L19.4487 101.194L20.0336 100.049L20.3809 99.7189L21.6007 98.77C21.6007 98.77 20.5626 97.1449 20.8048 97.0932C21.0464 97.0383 21.8834 97.0196 21.8834 97.0196L22.2762 97.2673L22.7196 96.2405L23.1121 95.7314L23.9207 94.4528L25.0307 92.2626L26.1134 90.3297L26.8075 89.6657L26.6651 89.0238L26.1659 88.2912L26.0236 87.6493C26.0236 87.6493 26.7177 86.9854 27.2347 87.0396C27.7515 87.0938 28.0573 87.6988 28.0573 87.6988C28.0573 87.6988 28.3265 88.1433 28.6978 87.556C29.0719 86.9651 28.8898 86.1633 28.8898 86.1633C28.8898 86.1633 28.4601 85.7519 29.4241 85.5359C30.3879 85.3197 28.8755 86.8412 30.3879 85.3197C31.9003 83.7982 31.8815 82.9595 31.8815 82.9595L32.3793 82.1716L33.2339 81.4746L34.764 79.2746C34.9417 78.5598 34.2979 78.7029 34.6724 78.1152C35.0466 77.5242 36.3637 77.396 36.3637 77.396L37.237 77.5376L38.2645 74.6055L37.8888 73.6761L36.372 73.681L35.6035 72.5039L40.2211 72.8176L43.0129 69.4904L43.5107 68.7026C43.5107 68.7026 44.3605 66.4855 44.8438 66.3755C45.3239 66.2661 45.7857 65.3212 45.7857 65.3212L46.7624 62.9068L47.9548 61.4583L46.9026 60.5145C46.9026 60.5145 46.3813 58.9437 46.8978 58.9944C47.4148 59.0488 48.895 58.8835 48.895 58.8835L49.9825 58.4705L50.2475 57.3985L51.4221 56.6284L52.0071 55.4833C52.0071 55.4833 52.5412 54.8558 52.8789 54.1044C53.2166 53.3532 52.6632 53.1386 53.4275 52.7991C54.1916 52.4596 55.3504 50.847 55.3504 50.847L54.7782 49.7937L55.595 47.4158C55.9879 47.6635 57.2225 49.4123 57.2225 49.4123C57.2225 49.4123 57.3274 48.3768 57.7379 47.9461C58.1484 47.5155 58.4276 45.7655 58.4276 45.7655C58.4276 45.7655 58.9623 45.138 58.8164 44.4966C58.6743 43.8547 59.7388 42.6003 60.1496 42.1696C60.2395 42.0721 60.3574 41.8829 60.4801 41.6558L60.457 40.7602C60.457 40.7602 60.8337 39.7194 61.4353 38.8255C62.0356 37.935 61.4353 38.8255 61.8485 37.9686C62.2629 37.1117 62.5995 36.8538 62.5995 36.8538L62.7562 35.6621L63.5073 34.5472L63.8852 33.5064L65.8612 32.7326L65.945 31.1663L67.7205 29.9584C68.0777 29.1772 69.1204 27.3209 69.1204 27.3209L70.5094 25.9963L71.1632 23.6554L71.1584 22.1353L72.2278 22.4008L72.1172 20.3994L72.8621 19.2178L73.3774 17.7516L73.9267 16.4462L75.137 15.8365C75.137 15.8365 75.2598 14.1225 75.47 13.5685C75.6851 13.0139 76.1287 12.7442 76.3426 12.1896L76.5564 11.6351C76.5564 11.6351 76.5941 10.1057 77 9.5C76.283 10.0286 74.4529 11.2646 74.4529 11.2646L74.4492 11.2585Z" fill="white"></path><path d="M86.1534 154.904C86.1534 154.904 86.9106 154.416 87.3599 153.859C87.8092 153.3 87.9094 153.126 88.4952 152.532C89.0797 151.938 89.7681 150.579 90.1486 150.336C90.529 150.095 90.8007 150.023 91.1147 149.501C91.4239 148.979 91.3237 147.965 92.0121 147.793C92.6993 147.621 93.4891 147.864 93.1799 147.202C92.872 146.539 93.0821 143.814 93.0821 143.814L93.5592 145.175L93.8684 145.837C93.8684 145.837 94.9674 145.559 94.6932 145.034C94.4203 144.51 94.5242 144.336 94.6631 143.707C94.8007 143.079 95.7319 142.101 95.7319 142.101C95.7319 142.101 96.3527 141.65 96.3865 141.196C96.4191 140.742 96.3551 139.869 96.3551 139.869L96.3611 137.496L97.2186 138.615C97.2186 138.615 97.9408 137.989 98.0785 137.361C98.2174 136.733 98.7331 136.455 98.9759 135.653C99.2186 134.851 99.8043 134.257 99.9783 133.771C100.151 133.28 101.595 132.621 101.94 131.645C102.286 130.669 103.007 130.04 103.01 129.447C103.012 128.855 103.563 128.122 103.736 127.633C103.909 127.142 104.287 127.493 104.287 127.493L105.318 127.53L105.492 125.855L106.111 124.807C106.111 124.807 105.525 125.401 107.04 123.238C108.553 121.074 109.141 119.888 109.141 119.888L110.312 118.705L111.275 118.461L111.792 116.995C111.792 116.995 111.623 116.296 111.792 115.807C111.966 115.317 112.345 114.483 112.519 113.992C112.692 113.502 113.037 113.118 113.037 113.118L113.824 115.146L113.757 113.677L114.479 113.052L115.545 112.042L117.508 109.32C117.508 109.32 118.368 108.067 118.511 107.438C118.649 106.81 119.063 106.114 119.2 105.482C119.338 104.85 119.372 105.588 119.339 104.854C119.306 104.12 119.72 103.423 119.72 103.423L121.476 101.646C121.476 101.646 122.3 101.439 121.959 100.634C121.62 99.829 121.583 99.6911 121.722 99.063C121.86 98.435 122.446 97.8411 122.446 97.8411C122.446 97.8411 123.068 96.2009 123.377 95.679C123.686 95.1571 123.758 94.2487 123.86 94.667C123.963 95.0852 123.959 96.8659 123.959 96.8659L124.232 97.3904C124.232 97.3904 125.403 96.2067 125.645 95.4005C125.889 94.5983 126.505 94.1469 126.543 93.6924C126.576 93.2384 127.816 91.7388 128.13 91.2163C128.44 90.6944 128.336 90.8686 128.579 90.0663C128.821 89.2641 129.059 89.6466 129.197 89.0186C129.336 88.3904 129.714 87.5526 129.714 87.5526L129.751 85.318C129.751 85.318 130.062 85.3879 130.336 85.9124C130.609 86.4369 131.367 86.5412 131.367 86.5412C131.367 86.5412 131.748 85.1108 132.022 84.447C132.296 83.7833 134.815 79.7369 134.815 79.7369L135.643 77.749C135.643 77.749 136.466 77.5417 136.639 77.0516C136.813 76.5614 137.774 75.726 137.774 75.726L138.976 75.8691L139.769 74.3351L139.941 73.253C139.941 73.253 139.633 72.5906 139.806 72.1005C139.979 71.6104 140.877 69.9022 140.877 69.9022C140.877 69.9022 140.705 69.7959 140.879 69.3097C141.053 68.8196 142.05 68.1261 141.912 67.5659C141.774 67.0058 142.053 66.3454 142.087 65.8914C142.121 65.4375 142.123 64.845 142.123 64.845C142.123 64.845 143.019 64.3213 143.158 63.6931C143.296 63.065 143.504 62.1209 143.504 62.1209L144.743 61.8095L145.364 61.3575C145.364 61.3575 145.813 60.7994 145.707 60.3817C145.605 59.9634 145.882 58.7071 145.882 58.7071C145.882 58.7071 145.675 58.4631 145.641 57.7288C145.609 56.9945 145.851 56.1923 145.851 56.1923C145.851 56.1923 146.438 55.006 146.472 54.5521C146.506 54.0981 147.436 53.1203 147.199 52.7376C146.96 52.3512 147.165 52.0034 147.168 51.411C147.17 50.8186 147.343 49.7365 147.343 49.7365C147.343 49.7365 148.033 48.9686 147.999 48.2343L147.966 47.5L145.838 51.9421C145.838 51.9421 144.051 53.3826 144.231 54.1273C144.413 54.8717 142.944 56.8258 142.944 56.8258C142.944 56.8258 142.302 58.1751 142.941 58.4079C143.58 58.6407 142.345 59.1503 142.345 59.1503L141.707 60.7215C141.707 60.7215 141.448 61.7523 141.26 61.5773C141.07 61.4021 139.987 62.3426 139.987 62.3426C139.987 62.3426 140.019 63.0769 140.001 63.3022C139.982 63.5275 139.551 63.8603 139.551 63.8603C139.551 63.8603 139.122 63.8949 139.035 64.1381C138.948 64.3813 139.103 65.0103 139.103 65.0103C139.103 65.0103 139.052 65.3953 138.64 65.4989C138.228 65.6026 137.454 66.0212 137.197 65.8639C136.941 65.7065 136.51 66.0355 136.51 66.0355L136.249 66.7688L136.764 66.7891L137.315 66.9475C137.315 66.9475 136.728 67.8355 136.524 67.889C136.318 67.9431 136.406 68.2918 136.406 68.2918L135.751 69.1977L135.441 69.7196L136.11 69.7734C136.11 69.7734 135.214 71.1872 135.161 70.9764C135.108 70.7655 135.04 70.7835 134.867 70.9755C134.694 71.1673 134.351 72.1432 134.076 72.2151C133.8 72.2831 133.527 72.6487 133.527 72.6487L133.079 72.9086L132.594 74.2189L131.818 75.23L131.335 76.2421L131.043 76.5387L130.01 77.3924C130.01 77.3924 130.935 78.7916 130.731 78.8413C130.523 78.8953 129.804 78.9284 129.804 78.9284L129.461 78.72L129.1 79.6269L128.773 80.0797L128.1 81.2148L127.188 83.1517L126.291 84.8599L125.705 85.4535L125.843 86.0137L126.289 86.6443L126.426 87.2045C126.426 87.2045 125.841 87.7983 125.394 87.7601C124.947 87.7257 124.673 87.2013 124.673 87.2013C124.673 87.2013 124.435 86.8148 124.122 87.3411C123.812 87.8631 123.981 88.5617 123.981 88.5617C123.981 88.5617 124.359 88.912 123.531 89.1198C122.708 89.3271 123.979 87.9699 122.708 89.3271C121.434 90.6888 121.466 91.4192 121.466 91.4192L121.052 92.1153L120.33 92.7408L119.057 94.6945C118.918 95.3226 119.47 95.1828 119.157 95.7091C118.847 96.231 117.713 96.3683 117.713 96.3683L116.958 96.2635L116.129 98.8478L116.473 99.652L117.78 99.6208L118.466 100.634L114.478 100.451L112.134 103.415L111.72 104.111C111.72 104.111 111.03 106.067 110.618 106.171C110.207 106.274 109.827 107.112 109.827 107.112L109.033 109.243L108.033 110.532L108.96 111.335C108.96 111.335 109.437 112.696 108.99 112.662C108.543 112.628 107.273 112.797 107.273 112.797L106.345 113.178L106.138 114.122L105.141 114.82L104.657 115.832C104.657 115.832 104.208 116.39 103.934 117.054C103.659 117.717 104.138 117.89 103.486 118.203C102.835 118.517 101.866 119.945 101.866 119.945L102.382 120.856L101.726 122.95C101.384 122.741 100.284 121.237 100.284 121.237C100.284 121.237 100.213 122.145 99.8671 122.529C99.5229 122.913 99.3128 124.449 99.3128 124.449C99.3128 124.449 98.8635 125.007 99.0012 125.568C99.1389 126.128 98.244 127.244 97.8998 127.628C97.8213 127.715 97.7246 127.883 97.6232 128.081L97.6582 128.862C97.6582 128.862 97.3539 129.781 96.8515 130.574C96.3527 131.365 96.8514 130.574 96.5121 131.331C96.1727 132.086 95.8853 132.32 95.8853 132.32L95.7742 133.365L95.1473 134.355L94.843 135.273L93.1522 135.988L93.1099 137.357L91.6051 138.447C91.3116 139.136 90.4517 140.775 90.4517 140.775L89.2802 141.959L88.7609 144.018L88.7911 145.344L87.8623 145.134L87.9952 146.879L87.3756 147.927L86.9602 149.22L86.5121 150.369L85.4795 150.925C85.4795 150.925 85.4094 152.426 85.2355 152.915C85.0628 153.406 84.686 153.648 84.5121 154.137L84.3394 154.628C84.3394 154.628 84.3357 155.963 84 156.5C84.6099 156.026 86.1618 154.906 86.1618 154.906L86.1534 154.904Z" fill="white"></path></svg>