<svg xmlns="http://www.w3.org/2000/svg" width="40" height="41" viewBox="0 0 40 41" fill="none"><rect x="0.25" y="0.75" width="39.5" height="39.5" rx="7.75" fill="black"></rect><rect x="0.25" y="0.75" width="39.5" height="39.5" rx="7.75" stroke="#686868" stroke-width="0.5"></rect><g clip-path="url(#clip0_555_374)"><path d="M23.5 31.5C23.5 32.052 23.052 32.5 22.5 32.5H17.5C16.948 32.5 16.5 32.052 16.5 31.5C16.5 30 18.237 28.5 20 28.5C21.763 28.5 23.5 30 23.5 31.5ZM11.231 27.5C12.612 27.5 13.731 26.381 13.731 25C13.731 23.619 12.612 22.5 11.231 22.5C9.85 22.5 8.731 23.619 8.731 25C8.731 26.381 9.85 27.5 11.231 27.5ZM20 27.5C21.381 27.5 22.5 26.381 22.5 25C22.5 23.619 21.381 22.5 20 22.5C18.619 22.5 17.5 23.619 17.5 25C17.5 26.381 18.619 27.5 20 27.5ZM27 8.5H13C10.239 8.5 8 10.739 8 13.5V21.881C8.819 21.033 9.962 20.5 11.231 20.5C13.374 20.5 15.165 22.008 15.616 24.017C16.067 22.008 17.858 20.5 20.001 20.5C22.144 20.5 23.935 22.008 24.386 24.017C24.837 22.008 26.628 20.5 28.771 20.5C30.04 20.5 31.183 21.033 32.002 21.881V13.5C32.002 10.739 29.763 8.5 27.002 8.5H27ZM28.769 27.5C30.15 27.5 31.269 26.381 31.269 25C31.269 23.619 30.15 22.5 28.769 22.5C27.388 22.5 26.269 23.619 26.269 25C26.269 26.381 27.388 27.5 28.769 27.5ZM28.75 28.5C27.083 28.5 25.567 30.039 25.5 31.5C25.5 32.052 25.948 32.5 26.5 32.5H31C31.552 32.5 32 32.052 32 31.5C31.921 30.042 30.415 28.5 28.75 28.5ZM11.25 28.5C9.583 28.5 8.067 30.039 8 31.5C8 32.052 8.448 32.5 9 32.5H13.5C14.052 32.5 14.5 32.052 14.5 31.5C14.421 30.042 12.915 28.5 11.25 28.5Z" fill="white"></path></g><defs><clipPath id="clip0_555_374"><rect width="24" height="24" fill="white" transform="translate(8 8.5)"></rect></clipPath></defs></svg>