<svg xmlns="http://www.w3.org/2000/svg" width="287" height="284" viewBox="0 0 287 284" fill="none"><path d="M30.4538 210.293C-6.11197 146.959 15.5878 65.9748 78.9215 29.4091C142.255 -7.15664 223.24 14.5431 259.805 77.8768C296.371 141.211 274.671 222.195 211.338 258.761C148.004 295.326 67.0195 273.627 30.4538 210.293ZM231.068 94.4686C203.665 47.0063 142.976 30.7445 95.5132 58.1469C48.0509 85.5492 31.7892 146.239 59.1915 193.701C86.5939 241.164 147.284 257.425 194.746 230.023C242.208 202.621 258.47 141.931 231.068 94.4686Z" fill="#D9D9D9"></path><path d="M45.6755 44.6803C58.6815 31.6743 74.1219 21.3574 91.115 14.3186C108.108 7.2798 126.321 3.65698 144.715 3.65698C163.108 3.65698 181.321 7.2798 198.314 14.3186C215.307 21.3574 230.748 31.6743 243.754 44.6803C256.76 57.6863 267.076 73.1266 274.115 90.1198C281.154 107.113 284.777 125.326 284.777 143.719C284.777 162.113 281.154 180.326 274.115 197.319C267.076 214.312 256.76 229.752 243.754 242.758L198.196 197.2C205.219 190.177 210.79 181.839 214.591 172.663C218.392 163.487 220.348 153.652 220.348 143.719C220.348 133.787 218.392 123.952 214.591 114.776C210.79 105.599 205.219 97.2615 198.196 90.2382C191.172 83.215 182.835 77.6439 173.658 73.8429C164.482 70.042 154.647 68.0856 144.715 68.0856C134.782 68.0856 124.947 70.042 115.771 73.8429C106.595 77.6439 98.2567 83.215 91.2335 90.2382L45.6755 44.6803Z" fill="url(#paint0_linear_568_1548)"></path><path d="M241.367 239.32C222.394 258.293 198.371 271.417 172.155 277.131C145.938 282.845 118.632 280.908 93.4849 271.551C68.3375 262.194 46.407 245.811 30.3019 224.35C14.1968 202.889 4.59503 177.254 2.63867 150.493L54.3238 146.715C55.5563 163.574 61.6054 179.724 71.7516 193.245C81.8978 206.765 95.7141 217.086 111.557 222.981C127.4 228.876 144.603 230.096 161.119 226.496C177.635 222.897 192.77 214.629 204.723 202.676L241.367 239.32Z" fill="#97A9FF"></path><defs><linearGradient id="paint0_linear_568_1548" x1="2.63867" y1="142" x2="284.777" y2="142" gradientUnits="userSpaceOnUse"><stop stop-color="#0B2FE1"></stop><stop offset="1" stop-color="#4766FF"></stop></linearGradient></defs></svg>