<svg xmlns="http://www.w3.org/2000/svg" width="40" height="41" viewBox="0 0 40 41" fill="none"><rect x="0.25" y="0.75" width="39.5" height="39.5" fill="black"></rect><rect x="0.25" y="0.75" width="39.5" height="39.5" stroke="#686868" stroke-width="0.5"></rect><g clip-path="url(#clip0_555_178)"><path d="M18.9453 27.5908C19.1229 27.9972 19.5282 28.2812 20 28.2812C20.4718 28.2812 20.8771 27.9972 21.0547 27.5908" stroke="white" stroke-width="0.703125" stroke-miterlimit="10" stroke-linecap="round" stroke-linejoin="round"></path><path d="M16.8359 27.5781C17.2243 27.5781 17.5391 27.2633 17.5391 26.875C17.5391 26.4867 17.2243 26.1719 16.8359 26.1719C16.4476 26.1719 16.1328 26.4867 16.1328 26.875C16.1328 27.2633 16.4476 27.5781 16.8359 27.5781Z" stroke="white" stroke-width="0.703125" stroke-miterlimit="10" stroke-linecap="round" stroke-linejoin="round"></path><path d="M23.8672 26.875C23.8672 27.2633 23.5524 27.5781 23.1641 27.5781C22.7757 27.5781 22.4609 27.2633 22.4609 26.875C22.4609 26.4867 22.7757 26.1719 23.1641 26.1719C23.5524 26.1719 23.8672 26.4867 23.8672 26.875Z" stroke="white" stroke-width="0.703125" stroke-miterlimit="10" stroke-linecap="round" stroke-linejoin="round"></path><path d="M25.2734 32.1484H14.7266C13.1733 32.1484 11.9141 30.8892 11.9141 29.3359V22.3047C11.9141 20.3631 13.4881 18.7891 15.4297 18.7891H24.5703C26.5119 18.7891 28.0859 20.3631 28.0859 22.3047V29.3359C28.0859 30.8892 26.8267 32.1484 25.2734 32.1484Z" stroke="white" stroke-width="0.703125" stroke-miterlimit="10" stroke-linecap="round" stroke-linejoin="round"></path><path d="M14.7266 30.7422C13.9512 30.7422 13.3203 30.1113 13.3203 29.3359V25.1172C13.3203 24.3418 13.9512 23.7109 14.7266 23.7109H25.2734C26.0488 23.7109 26.6797 24.3418 26.6797 25.1172V29.3359C26.6797 30.1113 26.0488 30.7422 25.2734 30.7422H14.7266Z" stroke="white" stroke-width="0.703125" stroke-miterlimit="10" stroke-linecap="round" stroke-linejoin="round"></path><path d="M10.5078 25.1172C10.5078 24.3418 11.1387 23.7109 11.9141 23.7109" stroke="white" stroke-width="0.703125" stroke-miterlimit="10" stroke-linecap="round" stroke-linejoin="round"></path><path d="M11.9141 29.3359C11.1387 29.3359 10.5078 28.7051 10.5078 27.9297" stroke="white" stroke-width="0.703125" stroke-miterlimit="10" stroke-linecap="round" stroke-linejoin="round"></path><path d="M9.10156 25.1172V27.9297H10.5078V19.4922C10.5078 19.1039 10.193 18.7891 9.80469 18.7891C9.41637 18.7891 9.10156 19.1039 9.10156 19.4922V23.7109" stroke="white" stroke-width="0.703125" stroke-miterlimit="10" stroke-linecap="round" stroke-linejoin="round"></path><path d="M29.4922 25.1172C29.4922 24.3418 28.8613 23.7109 28.0859 23.7109" stroke="white" stroke-width="0.703125" stroke-miterlimit="10" stroke-linecap="round" stroke-linejoin="round"></path><path d="M28.0859 29.3359C28.8613 29.3359 29.4922 28.7051 29.4922 27.9297" stroke="white" stroke-width="0.703125" stroke-miterlimit="10" stroke-linecap="round" stroke-linejoin="round"></path><path d="M30.8984 25.1172V27.9297H29.4922V19.4922C29.4922 19.1039 29.807 18.7891 30.1953 18.7891C30.5836 18.7891 30.8984 19.1039 30.8984 19.4922V23.7109" stroke="white" stroke-width="0.703125" stroke-miterlimit="10" stroke-linecap="round" stroke-linejoin="round"></path><path d="M22.8437 8.85156H17.1562C16.3796 8.85156 15.75 9.48114 15.75 10.2578V13.8672C15.75 14.6439 16.3796 15.2734 17.1562 15.2734H18.6564L19.3504 16.9488C19.5901 17.5275 20.4098 17.5275 20.6496 16.9488L21.3435 15.2734H22.8437C23.6204 15.2734 24.2499 14.6439 24.2499 13.8672V10.2578C24.25 9.48114 23.6204 8.85156 22.8437 8.85156Z" stroke="white" stroke-width="0.703125" stroke-miterlimit="10" stroke-linecap="round" stroke-linejoin="round"></path><path d="M22.1094 18.7891V22.3047H17.8906V18.7891" stroke="white" stroke-width="0.703125" stroke-miterlimit="10" stroke-linecap="round" stroke-linejoin="round"></path></g><defs><clipPath id="clip0_555_178"><rect width="24" height="24" fill="white" transform="translate(8 8.5)"></rect></clipPath></defs></svg>