<svg xmlns="http://www.w3.org/2000/svg" width="287" height="284" viewBox="0 0 287 284" fill="none"><path d="M275.855 139.237C275.855 212.911 216.13 272.636 142.456 272.636C68.7815 272.636 9.05666 212.911 9.05666 139.237C9.05666 65.5627 68.7815 5.83784 142.456 5.83784C216.13 5.83784 275.855 65.5627 275.855 139.237ZM42.4865 139.237C42.4865 194.449 87.2443 239.206 142.456 239.206C197.667 239.206 242.425 194.449 242.425 139.237C242.425 84.0255 197.667 39.2677 142.456 39.2677C87.2443 39.2677 42.4865 84.0255 42.4865 139.237Z" fill="#D9D9D9"></path><path d="M179.153 276.059C161.255 280.855 142.587 282.079 124.216 279.66C105.845 277.241 88.1295 271.228 72.0823 261.963C56.035 252.698 41.9697 240.363 30.6895 225.663C19.4093 210.962 11.135 194.183 6.33919 176.285C1.54333 158.387 0.319781 139.719 2.73841 121.348C5.15703 102.976 11.1705 85.2613 20.4354 69.2141C29.7002 53.1668 42.0352 39.1015 56.7358 27.8213C71.4365 16.5411 88.215 8.26686 106.113 3.471L122.913 66.1663C113.247 68.756 104.187 73.2241 96.2486 79.3155C88.3103 85.4068 81.6494 93.002 76.6464 101.668C71.6434 110.333 68.3961 119.899 67.09 129.82C65.784 139.74 66.4447 149.821 69.0345 159.486C71.6242 169.151 76.0923 178.211 82.1836 186.15C88.275 194.088 95.8702 200.749 104.536 205.752C113.201 210.755 122.767 214.002 132.688 215.308C142.608 216.614 152.689 215.954 162.354 213.364L179.153 276.059Z" fill="url(#paint0_linear_563_1485)"></path><path d="M106.464 7.67262C132.574 0.676499 160.144 1.32735 185.895 9.54776C211.645 17.7682 234.493 33.2122 251.72 54.0427C268.946 74.8732 279.827 100.214 283.068 127.05C286.309 153.885 281.773 181.088 270.001 205.42L223.004 182.682C230.421 167.353 233.279 150.216 231.237 133.309C229.195 116.402 222.34 100.438 211.487 87.3146C200.635 74.1913 186.241 64.4616 170.018 59.2828C153.795 54.1039 136.426 53.6939 119.976 58.1014L106.464 7.67262Z" fill="#97A9FF"></path><defs><linearGradient id="paint0_linear_563_1485" x1="-34.4748" y1="22.8075" x2="171.317" y2="255.279" gradientUnits="userSpaceOnUse"><stop stop-color="#0B2FE1"></stop><stop offset="1" stop-color="#4766FF"></stop></linearGradient></defs></svg>